{"glyphs":{"0":{"ha":1017,"x_min":0,"x_max":0,"o":"m 875 976 l 789 1061 b 693 1111 769 1081 744 1111 l 324 1111 b 228 1061 272 1111 247 1081 l 142 976 b 92 881 122 958 92 931 l 92 232 b 142 135 92 181 122 153 l 228 50 b 324 0 247 31 272 0 l 693 0 b 789 50 744 0 769 31 l 875 135 b 925 232 894 153 925 181 l 925 881 b 875 976 925 931 894 958 z m 278 833 l 369 926 l 601 926 l 279 276 l 278 278 z m 739 278 l 647 185 l 415 185 l 738 835 l 739 833 z "},"1":{"ha":1017,"x_min":0,"x_max":0,"o":"m 601 185 l 601 1110 l 415 1111 l 414 926 l 92 926 l 92 740 l 415 740 l 415 185 l 92 185 l 92 0 l 925 0 l 925 185 z "},"2":{"ha":1017,"x_min":0,"x_max":0,"o":"m 92 0 l 925 0 l 925 278 l 739 278 l 739 185 l 276 186 l 276 369 l 369 461 l 693 461 b 789 513 744 461 768 492 l 874 597 b 925 694 893 617 925 643 l 925 881 b 875 976 925 931 894 957 l 790 1061 b 693 1111 771 1081 744 1111 l 324 1111 b 228 1061 272 1111 247 1081 l 143 976 b 92 879 124 957 92 931 l 92 740 l 278 740 l 278 833 l 369 926 l 647 925 l 740 833 l 739 833 l 739 740 l 647 647 l 324 647 b 226 596 272 647 246 615 l 142 511 b 92 415 122 492 92 467 z "},"3":{"ha":1017,"x_min":0,"x_max":0,"o":"m 875 135 b 925 232 894 153 925 181 l 925 417 b 874 514 925 468 893 494 l 832 556 l 874 599 b 925 694 893 618 925 643 l 925 879 b 874 976 925 931 893 957 l 789 1061 b 693 1111 769 1081 744 1111 l 324 1111 b 228 1061 272 1111 247 1081 l 142 976 b 92 879 122 958 92 931 l 92 740 l 278 740 l 278 833 l 369 926 l 647 925 l 739 833 l 739 740 l 647 649 l 369 649 l 369 463 l 647 463 l 739 371 l 739 278 l 647 186 l 369 185 l 278 278 l 278 371 l 92 371 l 92 232 b 143 135 92 181 124 154 l 228 50 b 324 0 247 31 272 0 l 693 0 b 789 50 744 0 769 31 z "},"4":{"ha":1017,"x_min":0,"x_max":0,"o":"m 740 1111 l 740 607 l 369 607 l 278 699 l 278 1111 l 92 1111 l 92 653 b 143 557 92 601 124 576 l 228 472 b 324 421 247 453 272 421 l 739 421 l 739 0 l 925 0 l 925 1111 z "},"5":{"ha":1017,"x_min":0,"x_max":0,"o":"m 925 1111 l 324 1111 b 228 1061 272 1111 247 1081 l 143 976 b 92 879 124 957 92 931 l 92 463 l 647 463 l 739 371 l 740 278 l 647 185 l 369 185 l 278 278 l 278 371 l 92 371 l 92 232 b 143 135 92 181 124 154 l 228 50 b 324 0 247 31 272 0 l 693 0 b 789 50 744 0 769 32 l 875 135 b 925 232 894 153 925 181 l 925 417 b 875 513 925 468 893 494 l 789 599 b 693 649 771 617 744 649 l 278 649 l 278 833 l 369 926 l 740 926 l 740 833 l 925 833 z "},"6":{"ha":1017,"x_min":0,"x_max":0,"o":"m 875 976 l 789 1061 b 693 1111 769 1079 744 1111 l 324 1111 b 228 1061 272 1111 247 1081 l 143 976 b 92 879 124 957 92 931 l 92 232 b 143 135 92 181 124 154 l 228 50 b 324 0 247 31 272 0 l 693 0 b 789 50 744 0 769 32 l 875 135 b 925 232 894 153 925 181 l 925 417 b 875 513 925 468 893 494 l 789 599 b 693 649 771 617 744 649 l 278 649 l 278 833 l 369 926 l 647 925 l 740 835 l 740 740 l 925 740 l 925 879 b 875 976 925 931 894 958 z m 278 463 l 647 463 l 739 371 l 739 278 l 647 185 l 369 185 l 278 278 z "},"7":{"ha":1017,"x_min":0,"x_max":0,"o":"m 925 1111 l 92 1111 l 92 926 l 739 926 l 739 879 l 142 281 b 92 185 122 261 92 235 l 92 0 l 276 0 l 276 139 l 874 738 b 924 835 893 757 924 783 z "},"8":{"ha":1017,"x_min":0,"x_max":0,"o":"m 875 976 l 789 1061 b 693 1111 769 1079 744 1111 l 324 1111 b 228 1061 272 1111 247 1081 l 143 976 b 92 879 124 957 92 931 l 92 694 b 143 599 92 643 124 618 l 185 556 l 143 514 b 92 417 124 494 92 468 l 92 232 b 143 135 92 181 124 154 l 228 50 b 324 0 247 31 272 0 l 693 0 b 789 50 744 0 769 32 l 875 135 b 925 232 894 153 925 181 l 925 417 b 875 514 925 468 894 496 l 832 556 l 875 599 b 925 694 894 618 925 644 l 925 881 b 875 976 925 931 894 958 z m 739 833 l 739 742 l 647 649 l 369 649 l 278 740 l 278 833 l 369 926 l 647 926 z m 739 371 l 739 279 l 647 186 l 369 185 l 278 279 l 278 371 l 369 463 l 647 463 z "},"9":{"ha":1017,"x_min":0,"x_max":0,"o":"m 143 135 l 228 50 b 324 0 247 31 272 0 l 693 0 b 789 50 744 0 769 32 l 875 135 b 925 232 894 153 925 181 l 925 879 b 874 976 925 931 893 957 l 789 1061 b 693 1111 769 1081 744 1111 l 324 1111 b 228 1061 272 1111 247 1079 l 142 976 b 92 879 122 958 92 931 l 92 694 b 143 599 92 643 124 618 l 228 514 b 324 463 247 494 272 463 l 739 463 l 739 278 l 647 185 l 369 186 l 278 276 l 278 371 l 92 371 l 92 232 b 143 135 92 181 124 154 z m 739 649 l 369 649 l 278 740 l 278 833 l 369 926 l 647 926 l 739 833 z "}," ":{"ha":1017,"x_min":0,"x_max":0,"o":""},"A":{"ha":1017,"x_min":0,"x_max":0,"o":"m 875 976 b 789 1061 860 993 806 1044 b 693 1111 769 1081 744 1111 l 324 1111 b 228 1061 272 1111 246 1081 b 143 976 213 1044 158 992 b 92 879 124 957 92 931 l 92 0 l 278 0 l 278 185 l 739 185 l 739 0 l 925 0 l 925 879 b 875 976 925 931 893 957 z m 739 833 l 739 371 l 278 371 l 278 833 l 369 926 l 647 926 z "},"Á":{"ha":1017,"x_min":0,"x_max":0,"o":"m 624 1204 l 810 1389 l 532 1389 l 346 1204 z m 875 976 b 789 1061 860 993 806 1044 b 693 1111 769 1081 744 1111 l 324 1111 b 228 1061 272 1111 246 1081 b 143 976 213 1044 158 992 b 92 879 124 957 92 931 l 92 0 l 278 0 l 278 185 l 739 185 l 739 0 l 925 0 l 925 879 b 875 976 925 931 893 957 z m 739 833 l 739 371 l 278 371 l 278 833 l 369 926 l 647 926 z "},"Ă":{"ha":1017,"x_min":0,"x_max":0,"o":"m 675 1389 l 554 1389 l 554 1325 l 463 1325 l 463 1389 l 342 1389 l 342 1297 b 435 1204 342 1250 388 1204 l 582 1204 b 675 1297 629 1204 675 1250 z m 875 976 b 789 1061 860 993 806 1044 b 693 1111 769 1081 744 1111 l 324 1111 b 228 1061 272 1111 246 1081 b 143 976 213 1044 158 992 b 92 879 124 957 92 931 l 92 0 l 278 0 l 278 185 l 739 185 l 739 0 l 925 0 l 925 879 b 875 976 925 931 893 957 z m 739 833 l 739 371 l 278 371 l 278 833 l 369 926 l 647 926 z "},"Â":{"ha":1017,"x_min":0,"x_max":0,"o":"m 601 1204 l 879 1204 l 693 1389 l 324 1389 l 138 1204 l 415 1204 l 508 1296 z m 875 976 b 789 1061 860 993 806 1044 b 693 1111 769 1081 744 1111 l 324 1111 b 228 1061 272 1111 246 1081 b 143 976 213 1044 158 992 b 92 879 124 957 92 931 l 92 0 l 278 0 l 278 185 l 739 185 l 739 0 l 925 0 l 925 879 b 875 976 925 931 893 957 z m 739 833 l 739 371 l 278 371 l 278 833 l 369 926 l 647 926 z "},"Ä":{"ha":1017,"x_min":0,"x_max":0,"o":"m 92 1389 l 92 1204 l 278 1204 l 278 1389 z m 739 1389 l 739 1204 l 925 1204 l 925 1389 z m 875 976 b 789 1061 860 993 806 1044 b 693 1111 769 1081 744 1111 l 324 1111 b 228 1061 272 1111 246 1081 b 143 976 213 1044 158 992 b 92 879 124 957 92 931 l 92 0 l 278 0 l 278 185 l 739 185 l 739 0 l 925 0 l 925 879 b 875 976 925 931 893 957 z m 739 833 l 739 371 l 278 371 l 278 833 l 369 926 l 647 926 z "},"À":{"ha":1017,"x_min":0,"x_max":0,"o":"m 393 1204 l 671 1204 l 485 1389 l 207 1389 z m 875 976 b 789 1061 860 993 806 1044 b 693 1111 769 1081 744 1111 l 324 1111 b 228 1061 272 1111 246 1081 b 143 976 213 1044 158 992 b 92 879 124 957 92 931 l 92 0 l 278 0 l 278 185 l 739 185 l 739 0 l 925 0 l 925 879 b 875 976 925 931 893 957 z m 739 833 l 739 371 l 278 371 l 278 833 l 369 926 l 647 926 z "},"Ā":{"ha":1017,"x_min":0,"x_max":0,"o":"m 92 1389 l 92 1204 l 925 1204 l 925 1389 z m 875 976 b 789 1061 860 993 806 1044 b 693 1111 769 1081 744 1111 l 324 1111 b 228 1061 272 1111 246 1081 b 143 976 213 1044 158 992 b 92 879 124 957 92 931 l 92 0 l 278 0 l 278 185 l 739 185 l 739 0 l 925 0 l 925 879 b 875 976 925 931 893 957 z m 739 833 l 739 371 l 278 371 l 278 833 l 369 926 l 647 926 z "},"Ą":{"ha":1017,"x_min":0,"x_max":0,"o":"m 925 -101 l 925 879 b 875 976 925 931 893 957 b 789 1061 860 993 806 1044 b 693 1111 769 1081 744 1111 l 324 1111 b 228 1061 272 1111 246 1081 b 143 976 213 1044 158 992 b 92 879 124 957 92 931 l 92 0 l 278 0 l 278 185 l 739 185 l 739 -101 b 832 -194 739 -149 785 -194 l 1017 -194 l 1017 -101 z m 278 371 l 278 833 l 369 926 l 647 926 l 739 833 l 739 371 z "},"Å":{"ha":1017,"x_min":0,"x_max":0,"o":"m 342 1297 b 435 1204 342 1250 388 1204 l 582 1204 b 675 1297 629 1204 675 1250 l 675 1444 b 582 1538 675 1492 629 1538 l 435 1538 b 342 1444 388 1538 342 1492 z m 463 1325 l 463 1417 l 554 1417 l 554 1325 z m 875 976 b 789 1061 860 993 806 1044 b 693 1111 769 1081 744 1111 l 324 1111 b 228 1061 272 1111 246 1081 b 143 976 213 1044 158 992 b 92 879 124 957 92 931 l 92 0 l 278 0 l 278 185 l 739 185 l 739 0 l 925 0 l 925 879 b 875 976 925 931 893 957 z m 739 833 l 739 371 l 278 371 l 278 833 l 369 926 l 647 926 z "},"Ã":{"ha":1017,"x_min":0,"x_max":0,"o":"m 92 1389 l 92 1204 l 925 1204 l 925 1389 z m 875 976 b 789 1061 860 993 806 1044 b 693 1111 769 1081 744 1111 l 324 1111 b 228 1061 272 1111 246 1081 b 143 976 213 1044 158 992 b 92 879 124 957 92 931 l 92 0 l 278 0 l 278 185 l 739 185 l 739 0 l 925 0 l 925 879 b 875 976 925 931 893 957 z m 739 833 l 739 371 l 278 371 l 278 833 l 369 926 l 647 926 z "},"Æ":{"ha":1017,"x_min":0,"x_max":0,"o":"m 672 926 l 925 926 l 925 1111 l 324 1111 b 228 1061 272 1111 247 1081 l 143 976 b 92 879 124 957 92 931 l 92 0 l 278 0 l 278 185 l 488 185 l 488 0 l 925 0 l 925 185 l 672 185 l 672 463 l 878 463 l 878 649 l 672 649 z m 488 926 l 488 371 l 278 371 l 278 833 l 369 926 z "},"B":{"ha":1017,"x_min":0,"x_max":0,"o":"m 925 693 l 925 879 b 875 976 925 931 894 958 l 789 1061 b 693 1111 769 1081 744 1111 l 92 1111 l 92 0 l 693 0 b 789 50 744 0 769 31 l 875 135 b 925 232 894 153 925 181 l 925 418 b 875 514 925 468 894 496 l 833 556 l 875 597 b 925 693 894 615 925 643 z m 278 925 l 649 925 l 739 833 l 739 740 l 649 649 l 278 649 z m 739 278 l 649 186 l 278 186 l 278 463 l 649 463 l 739 371 z "},"C":{"ha":1017,"x_min":0,"x_max":0,"o":"m 829 976 l 743 1061 b 647 1111 724 1081 699 1111 l 369 1111 b 274 1061 318 1111 292 1081 l 189 976 b 138 879 169 957 138 931 l 138 232 b 189 135 138 181 169 154 l 274 50 b 369 0 293 31 318 0 l 647 0 b 743 50 699 0 724 31 l 829 135 b 879 232 849 153 879 181 l 879 371 l 693 371 l 693 278 l 601 185 l 415 185 l 324 278 l 324 833 l 415 926 l 601 926 l 693 833 l 693 740 l 879 740 l 879 879 b 829 976 879 931 849 958 z "},"Ć":{"ha":1017,"x_min":0,"x_max":0,"o":"m 624 1204 l 810 1389 l 532 1389 l 346 1204 z m 829 976 l 743 1061 b 647 1111 724 1081 699 1111 l 369 1111 b 274 1061 318 1111 292 1081 l 189 976 b 138 879 169 957 138 931 l 138 232 b 189 135 138 181 169 154 l 274 50 b 369 0 293 31 318 0 l 647 0 b 743 50 699 0 724 31 l 829 135 b 879 232 849 153 879 181 l 879 371 l 693 371 l 693 278 l 601 185 l 415 185 l 324 278 l 324 833 l 415 926 l 601 926 l 693 833 l 693 740 l 879 740 l 879 879 b 829 976 879 931 849 958 z "},"Č":{"ha":1017,"x_min":0,"x_max":0,"o":"m 415 1389 l 138 1389 l 324 1204 l 693 1204 l 879 1389 l 601 1389 l 508 1297 z m 829 976 l 743 1061 b 647 1111 724 1081 699 1111 l 369 1111 b 274 1061 318 1111 292 1081 l 189 976 b 138 879 169 957 138 931 l 138 232 b 189 135 138 181 169 154 l 274 50 b 369 0 293 31 318 0 l 647 0 b 743 50 699 0 724 31 l 829 135 b 879 232 849 153 879 181 l 879 371 l 693 371 l 693 278 l 601 185 l 415 185 l 324 278 l 324 833 l 415 926 l 601 926 l 693 833 l 693 740 l 879 740 l 879 879 b 829 976 879 931 849 958 z "},"Ç":{"ha":1017,"x_min":0,"x_max":0,"o":"m 829 976 l 743 1061 b 647 1111 724 1081 699 1111 l 369 1111 b 274 1061 318 1111 292 1081 l 189 976 b 138 879 169 957 138 931 l 138 232 b 189 135 138 181 169 154 l 274 50 b 369 0 293 31 318 0 l 417 0 l 417 -172 l 603 -172 l 603 -264 l 417 -264 l 417 -357 l 693 -357 b 786 -264 740 -357 786 -311 l 786 -172 b 693 -79 786 -125 740 -79 l 603 -79 l 603 0 l 647 0 b 743 50 699 0 724 31 l 829 135 b 879 232 849 153 879 181 l 879 371 l 693 371 l 693 278 l 601 185 l 415 185 l 324 278 l 324 833 l 415 926 l 601 926 l 693 833 l 693 740 l 879 740 l 879 879 b 829 976 879 931 849 958 z "},"Ċ":{"ha":1017,"x_min":0,"x_max":0,"o":"m 415 1389 l 415 1201 l 601 1201 l 601 1389 z m 829 976 l 743 1061 b 647 1111 724 1081 699 1111 l 369 1111 b 274 1061 318 1111 292 1081 l 189 976 b 138 879 169 957 138 931 l 138 232 b 189 135 138 181 169 154 l 274 50 b 369 0 293 31 318 0 l 647 0 b 743 50 699 0 724 31 l 829 135 b 879 232 849 153 879 181 l 879 371 l 693 371 l 693 278 l 601 185 l 415 185 l 324 278 l 324 833 l 415 926 l 601 926 l 693 833 l 693 740 l 879 740 l 879 879 b 829 976 879 931 849 958 z "},"D":{"ha":1017,"x_min":0,"x_max":0,"o":"m 829 976 l 743 1061 b 647 1111 724 1081 699 1111 l 138 1111 l 138 0 l 647 0 b 743 50 699 0 724 31 l 829 135 b 879 232 849 153 879 181 l 879 881 b 829 976 879 931 849 958 z m 693 833 l 693 278 l 601 185 l 324 185 l 324 926 l 601 926 z "},"Ð":{"ha":1017,"x_min":0,"x_max":0,"o":"m 829 976 l 743 1061 b 647 1111 724 1081 699 1111 l 138 1111 l 138 0 l 647 0 b 743 50 699 0 724 31 l 829 135 b 879 232 849 153 879 181 l 879 881 b 829 976 879 931 849 958 z m 693 278 l 601 185 l 324 185 l 324 463 l 560 463 l 560 649 l 324 649 l 324 926 l 601 926 l 693 833 z "},"Ď":{"ha":1017,"x_min":0,"x_max":0,"o":"m 415 1389 l 138 1389 l 324 1204 l 693 1204 l 879 1389 l 601 1389 l 508 1297 z m 829 976 l 743 1061 b 647 1111 724 1081 699 1111 l 138 1111 l 138 0 l 647 0 b 743 50 699 0 724 31 l 829 135 b 879 232 849 153 879 181 l 879 881 b 829 976 879 931 849 958 z m 693 833 l 693 278 l 601 185 l 324 185 l 324 926 l 601 926 z "},"Đ":{"ha":1017,"x_min":0,"x_max":0,"o":"m 829 976 l 743 1061 b 647 1111 724 1081 699 1111 l 138 1111 l 138 0 l 647 0 b 743 50 699 0 724 31 l 829 135 b 879 232 849 153 879 181 l 879 881 b 829 976 879 931 849 958 z m 693 278 l 601 185 l 324 185 l 324 463 l 560 463 l 560 649 l 324 649 l 324 926 l 601 926 l 693 833 z "},"E":{"ha":1017,"x_min":0,"x_max":0,"o":"m 925 833 l 925 1111 l 324 1111 b 228 1061 272 1111 247 1081 l 143 976 b 92 879 124 957 92 931 l 92 232 b 143 135 92 181 124 154 l 228 50 b 324 0 247 31 272 0 l 925 0 l 925 278 l 739 278 l 739 185 l 369 185 l 278 278 l 278 463 l 647 463 l 647 649 l 278 649 l 278 833 l 369 926 l 740 926 l 740 833 z "},"É":{"ha":1017,"x_min":0,"x_max":0,"o":"m 810 1389 l 532 1389 l 346 1204 l 624 1204 z m 925 833 l 925 1111 l 324 1111 b 228 1061 272 1111 247 1081 l 143 976 b 92 879 124 957 92 931 l 92 232 b 143 135 92 181 124 154 l 228 50 b 324 0 247 31 272 0 l 925 0 l 925 278 l 739 278 l 739 185 l 369 185 l 278 278 l 278 463 l 647 463 l 647 649 l 278 649 l 278 833 l 369 926 l 740 926 l 740 833 z "},"Ě":{"ha":1017,"x_min":0,"x_max":0,"o":"m 693 1204 l 879 1389 l 601 1389 l 508 1297 l 415 1389 l 138 1389 l 324 1204 z m 925 833 l 925 1111 l 324 1111 b 228 1061 272 1111 247 1081 l 143 976 b 92 879 124 957 92 931 l 92 232 b 143 135 92 181 124 154 l 228 50 b 324 0 247 31 272 0 l 925 0 l 925 278 l 739 278 l 739 185 l 369 185 l 278 278 l 278 463 l 647 463 l 647 649 l 278 649 l 278 833 l 369 926 l 740 926 l 740 833 z "},"Ê":{"ha":1017,"x_min":0,"x_max":0,"o":"m 508 1296 l 601 1204 l 879 1204 l 693 1389 l 324 1389 l 138 1204 l 415 1204 z m 925 833 l 925 1111 l 324 1111 b 228 1061 272 1111 247 1081 l 143 976 b 92 879 124 957 92 931 l 92 232 b 143 135 92 181 124 154 l 228 50 b 324 0 247 31 272 0 l 925 0 l 925 278 l 739 278 l 739 185 l 369 185 l 278 278 l 278 463 l 647 463 l 647 649 l 278 649 l 278 833 l 369 926 l 740 926 l 740 833 z "},"Ë":{"ha":1017,"x_min":0,"x_max":0,"o":"m 278 1389 l 92 1389 l 92 1204 l 278 1204 z m 739 1389 l 739 1204 l 925 1204 l 925 1389 z m 228 1061 l 143 976 b 92 879 124 957 92 931 l 92 232 b 143 135 92 181 124 154 l 228 50 b 324 0 247 31 272 0 l 925 0 l 925 278 l 739 278 l 739 185 l 369 185 l 278 278 l 278 463 l 647 463 l 647 649 l 278 649 l 278 833 l 369 926 l 740 926 l 740 833 l 925 833 l 925 1111 l 324 1111 b 228 1061 272 1111 247 1081 z "},"Ė":{"ha":1017,"x_min":0,"x_max":0,"o":"m 601 1389 l 415 1389 l 415 1201 l 601 1201 z m 925 833 l 925 1111 l 324 1111 b 228 1061 272 1111 247 1081 l 143 976 b 92 879 124 957 92 931 l 92 232 b 143 135 92 181 124 154 l 228 50 b 324 0 247 31 272 0 l 925 0 l 925 278 l 739 278 l 739 185 l 369 185 l 278 278 l 278 463 l 647 463 l 647 649 l 278 649 l 278 833 l 369 926 l 740 926 l 740 833 z "},"È":{"ha":1017,"x_min":0,"x_max":0,"o":"m 671 1204 l 485 1389 l 207 1389 l 393 1204 z m 925 833 l 925 1111 l 324 1111 b 228 1061 272 1111 247 1081 l 143 976 b 92 879 124 957 92 931 l 92 232 b 143 135 92 181 124 154 l 228 50 b 324 0 247 31 272 0 l 925 0 l 925 278 l 739 278 l 739 185 l 369 185 l 278 278 l 278 463 l 647 463 l 647 649 l 278 649 l 278 833 l 369 926 l 740 926 l 740 833 z "},"Ē":{"ha":1017,"x_min":0,"x_max":0,"o":"m 92 1389 l 92 1204 l 925 1204 l 925 1389 z m 228 1061 l 143 976 b 92 879 124 957 92 931 l 92 232 b 143 135 92 181 124 154 l 228 50 b 324 0 247 31 272 0 l 925 0 l 925 278 l 739 278 l 739 185 l 369 185 l 278 278 l 278 463 l 647 463 l 647 649 l 278 649 l 278 833 l 369 926 l 740 926 l 740 833 l 925 833 l 925 1111 l 324 1111 b 228 1061 272 1111 247 1081 z "},"Ę":{"ha":1017,"x_min":0,"x_max":0,"o":"m 925 833 l 925 1111 l 324 1111 b 228 1061 272 1111 247 1081 l 143 976 b 92 879 124 957 92 931 l 92 232 b 143 135 92 181 124 154 l 228 50 b 324 0 247 31 272 0 l 625 0 l 625 -101 b 718 -194 625 -149 671 -194 l 903 -194 l 903 -101 l 811 -101 l 811 0 l 925 0 l 925 278 l 739 278 l 739 185 l 369 185 l 278 278 l 278 463 l 647 463 l 647 649 l 278 649 l 278 833 l 369 926 l 740 926 l 740 833 z "},"F":{"ha":1017,"x_min":0,"x_max":0,"o":"m 324 1111 b 228 1061 272 1111 247 1081 l 143 976 b 92 879 124 957 92 931 l 92 0 l 278 0 l 278 415 l 647 415 l 647 601 l 278 601 l 278 833 l 369 926 l 740 926 l 740 833 l 925 833 l 925 1111 z "},"G":{"ha":1017,"x_min":0,"x_max":0,"o":"m 925 740 l 925 879 b 875 976 925 931 894 958 l 789 1061 b 693 1111 769 1081 744 1111 l 324 1111 b 228 1061 272 1111 247 1081 l 143 976 b 92 879 124 957 92 931 l 92 232 b 143 135 92 181 124 154 l 228 50 b 324 0 247 31 272 0 l 693 0 b 789 50 744 0 769 31 l 875 135 b 925 232 894 153 925 181 l 925 607 l 490 607 l 490 421 l 739 421 l 739 278 l 647 185 l 369 185 l 278 278 l 278 833 l 369 926 l 647 926 l 739 833 l 739 740 z "},"Ğ":{"ha":1017,"x_min":0,"x_max":0,"o":"m 435 1204 l 582 1204 b 675 1297 629 1204 675 1250 l 675 1389 l 554 1389 l 554 1325 l 463 1325 l 463 1389 l 342 1389 l 342 1297 b 435 1204 342 1250 388 1204 z m 925 740 l 925 879 b 875 976 925 931 894 958 l 789 1061 b 693 1111 769 1081 744 1111 l 324 1111 b 228 1061 272 1111 247 1081 l 143 976 b 92 879 124 957 92 931 l 92 232 b 143 135 92 181 124 154 l 228 50 b 324 0 247 31 272 0 l 693 0 b 789 50 744 0 769 31 l 875 135 b 925 232 894 153 925 181 l 925 607 l 490 607 l 490 421 l 739 421 l 739 278 l 647 185 l 369 185 l 278 278 l 278 833 l 369 926 l 647 926 l 739 833 l 739 740 z "},"Ģ":{"ha":1017,"x_min":0,"x_max":0,"o":"m 925 740 l 925 879 b 875 976 925 931 894 958 l 789 1061 b 693 1111 769 1081 744 1111 l 324 1111 b 228 1061 272 1111 247 1081 l 143 976 b 92 879 124 957 92 931 l 92 232 b 143 135 92 181 124 154 l 228 50 b 324 0 247 31 272 0 l 693 0 b 789 50 744 0 769 31 l 875 135 b 925 232 894 153 925 181 l 925 607 l 490 607 l 490 421 l 739 421 l 739 278 l 647 185 l 369 185 l 278 278 l 278 833 l 369 926 l 647 926 l 739 833 l 739 740 z m 290 -278 l 475 -278 l 615 -69 l 388 -69 z "},"Ġ":{"ha":1017,"x_min":0,"x_max":0,"o":"m 601 1389 l 415 1389 l 415 1201 l 601 1201 z m 925 740 l 925 879 b 875 976 925 931 894 958 l 789 1061 b 693 1111 769 1081 744 1111 l 324 1111 b 228 1061 272 1111 247 1081 l 143 976 b 92 879 124 957 92 931 l 92 232 b 143 135 92 181 124 154 l 228 50 b 324 0 247 31 272 0 l 693 0 b 789 50 744 0 769 31 l 875 135 b 925 232 894 153 925 181 l 925 607 l 490 607 l 490 421 l 739 421 l 739 278 l 647 185 l 369 185 l 278 278 l 278 833 l 369 926 l 647 926 l 739 833 l 739 740 z "},"H":{"ha":1017,"x_min":0,"x_max":0,"o":"m 739 1111 l 739 649 l 278 649 l 278 1111 l 92 1111 l 92 0 l 278 0 l 278 463 l 739 463 l 739 0 l 925 0 l 925 1111 z "},"Ħ":{"ha":1017,"x_min":0,"x_max":0,"o":"m 925 975 l 833 975 l 833 1111 l 647 1111 l 647 975 l 369 975 l 369 1111 l 183 1111 l 183 975 l 92 975 l 92 789 l 183 789 l 183 0 l 369 0 l 369 407 l 647 407 l 647 0 l 833 0 l 833 789 l 925 789 z m 647 593 l 369 593 l 369 789 l 647 789 z "},"I":{"ha":1017,"x_min":0,"x_max":0,"o":"m 925 926 l 925 1111 l 92 1111 l 92 926 l 415 926 l 415 185 l 92 185 l 92 0 l 925 0 l 925 185 l 601 185 l 601 926 z "},"Ĳ":{"ha":1017,"x_min":0,"x_max":0,"o":"m 739 1111 l 739 278 l 647 185 l 369 185 l 278 278 l 278 371 l 92 371 l 92 232 b 142 135 92 181 122 153 l 228 50 b 324 0 247 32 272 0 l 693 0 b 789 50 744 0 769 31 l 874 135 b 925 232 893 154 925 181 l 925 1111 z m 647 649 l 460 649 l 460 925 l 647 925 l 647 1111 l 92 1111 l 92 925 l 274 925 l 274 649 l 92 649 l 92 463 l 647 463 z "},"Í":{"ha":1017,"x_min":0,"x_max":0,"o":"m 810 1389 l 532 1389 l 346 1204 l 624 1204 z m 925 926 l 925 1111 l 92 1111 l 92 926 l 415 926 l 415 185 l 92 185 l 92 0 l 925 0 l 925 185 l 601 185 l 601 926 z "},"Î":{"ha":1017,"x_min":0,"x_max":0,"o":"m 508 1296 l 601 1204 l 879 1204 l 693 1389 l 324 1389 l 138 1204 l 415 1204 z m 925 926 l 925 1111 l 92 1111 l 92 926 l 415 926 l 415 185 l 92 185 l 92 0 l 925 0 l 925 185 l 601 185 l 601 926 z "},"Ï":{"ha":1017,"x_min":0,"x_max":0,"o":"m 278 1389 l 92 1389 l 92 1204 l 278 1204 z m 739 1389 l 739 1204 l 925 1204 l 925 1389 z m 92 926 l 415 926 l 415 185 l 92 185 l 92 0 l 925 0 l 925 185 l 601 185 l 601 926 l 925 926 l 925 1111 l 92 1111 z "},"İ":{"ha":1017,"x_min":0,"x_max":0,"o":"m 601 1389 l 415 1389 l 415 1201 l 601 1201 z m 925 926 l 925 1111 l 92 1111 l 92 926 l 415 926 l 415 185 l 92 185 l 92 0 l 925 0 l 925 185 l 601 185 l 601 926 z "},"Ì":{"ha":1017,"x_min":0,"x_max":0,"o":"m 671 1204 l 485 1389 l 207 1389 l 393 1204 z m 925 926 l 925 1111 l 92 1111 l 92 926 l 415 926 l 415 185 l 92 185 l 92 0 l 925 0 l 925 185 l 601 185 l 601 926 z "},"Ī":{"ha":1017,"x_min":0,"x_max":0,"o":"m 92 1389 l 92 1204 l 925 1204 l 925 1389 z m 92 926 l 415 926 l 415 185 l 92 185 l 92 0 l 925 0 l 925 185 l 601 185 l 601 926 l 925 926 l 925 1111 l 92 1111 z "},"Į":{"ha":1017,"x_min":0,"x_max":0,"o":"m 925 926 l 925 1111 l 92 1111 l 92 926 l 415 926 l 415 185 l 92 185 l 92 0 l 647 0 l 647 -101 b 740 -194 647 -149 693 -194 l 925 -194 l 925 -101 l 833 -101 l 833 0 l 925 0 l 925 185 l 601 185 l 601 926 z "},"J":{"ha":1017,"x_min":0,"x_max":0,"o":"m 925 1111 l 739 1111 l 739 278 l 647 185 l 369 185 l 278 278 l 278 371 l 92 371 l 92 232 b 142 135 92 181 122 153 l 228 50 b 324 0 247 32 272 0 l 693 0 b 789 50 744 0 769 31 l 874 135 b 925 232 893 154 925 181 z "},"K":{"ha":1017,"x_min":0,"x_max":0,"o":"m 925 692 l 925 1111 l 739 1111 l 739 739 l 647 649 l 278 649 l 278 1111 l 92 1111 l 92 0 l 278 0 l 278 463 l 647 463 l 739 372 l 739 0 l 925 0 l 925 419 b 875 515 925 469 894 497 l 835 556 l 875 596 b 925 692 894 614 925 642 z "},"Ķ":{"ha":1017,"x_min":0,"x_max":0,"o":"m 925 692 l 925 1111 l 739 1111 l 739 739 l 647 649 l 278 649 l 278 1111 l 92 1111 l 92 0 l 278 0 l 278 463 l 647 463 l 739 372 l 739 0 l 925 0 l 925 419 b 875 515 925 469 894 497 l 835 556 l 875 596 b 925 692 894 614 925 642 z m 290 -278 l 475 -278 l 615 -69 l 388 -69 z "},"L":{"ha":1017,"x_min":0,"x_max":0,"o":"m 92 1111 l 92 232 b 143 135 92 181 124 154 l 228 50 b 324 0 247 31 272 0 l 925 0 l 925 278 l 740 278 l 740 185 l 369 185 l 278 278 l 278 1111 z "},"Ĺ":{"ha":1063,"x_min":0,"x_max":0,"o":"m 346 1163 l 532 1347 l 254 1347 l 138 1163 z m 138 1111 l 138 232 b 189 135 138 181 169 154 l 274 50 b 369 0 293 31 318 0 l 971 0 l 971 278 l 786 278 l 786 185 l 415 185 l 324 278 l 324 1111 z "},"Ľ":{"ha":1063,"x_min":0,"x_max":0,"o":"m 403 1347 l 322 1200 l 336 1347 l 139 1347 l 138 1163 l 507 1163 l 601 1347 z m 138 1111 l 138 232 b 189 135 138 181 169 154 l 274 50 b 369 0 293 31 318 0 l 971 0 l 971 278 l 786 278 l 786 185 l 415 185 l 324 278 l 324 1111 z "},"Ļ":{"ha":1017,"x_min":0,"x_max":0,"o":"m 92 1111 l 92 232 b 143 135 92 181 124 154 l 228 50 b 324 0 247 31 272 0 l 925 0 l 925 278 l 740 278 l 740 185 l 369 185 l 278 278 l 278 1111 z m 388 -69 l 290 -278 l 475 -278 l 615 -69 z "},"Ł":{"ha":1017,"x_min":0,"x_max":0,"o":"m 739 278 l 739 185 l 461 185 l 369 278 l 369 532 l 647 636 l 647 836 l 369 732 l 369 1111 l 183 1111 l 183 663 l 92 628 l 92 428 l 183 463 l 183 232 b 233 135 183 181 214 153 l 319 50 b 415 0 339 31 364 0 l 925 0 l 925 278 z "},"M":{"ha":1017,"x_min":0,"x_max":0,"o":"m 647 1111 b 551 1061 596 1111 571 1081 l 508 1018 l 465 1061 b 369 1111 446 1081 421 1111 l 92 1111 l 92 0 l 278 0 l 278 925 l 324 925 l 415 833 l 415 0 l 601 0 l 601 833 l 693 925 l 739 925 l 739 0 l 925 0 l 925 1111 z "},"N":{"ha":1017,"x_min":0,"x_max":0,"o":"m 739 1111 l 739 186 l 693 186 l 601 278 l 601 879 b 550 976 601 931 569 957 l 465 1061 b 369 1111 446 1081 421 1111 l 92 1111 l 92 0 l 278 0 l 278 925 l 324 925 l 415 833 l 415 232 b 467 135 415 181 447 154 l 551 50 b 647 0 571 31 596 0 l 925 0 l 925 1111 z "},"Ń":{"ha":1017,"x_min":0,"x_max":0,"o":"m 810 1389 l 532 1389 l 346 1204 l 624 1204 z m 739 1111 l 739 186 l 693 186 l 601 278 l 601 879 b 550 976 601 931 569 957 l 465 1061 b 369 1111 446 1081 421 1111 l 92 1111 l 92 0 l 278 0 l 278 925 l 324 925 l 415 833 l 415 232 b 467 135 415 181 447 154 l 551 50 b 647 0 571 31 596 0 l 925 0 l 925 1111 z "},"Ň":{"ha":1017,"x_min":0,"x_max":0,"o":"m 693 1204 l 879 1389 l 601 1389 l 508 1297 l 415 1389 l 138 1389 l 324 1204 z m 739 1111 l 739 186 l 693 186 l 601 278 l 601 879 b 550 976 601 931 569 957 l 465 1061 b 369 1111 446 1081 421 1111 l 92 1111 l 92 0 l 278 0 l 278 925 l 324 925 l 415 833 l 415 232 b 467 135 415 181 447 154 l 551 50 b 647 0 571 31 596 0 l 925 0 l 925 1111 z "},"Ņ":{"ha":1017,"x_min":0,"x_max":0,"o":"m 739 1111 l 739 186 l 693 186 l 601 278 l 601 879 b 550 976 601 931 569 957 l 465 1061 b 369 1111 446 1081 421 1111 l 92 1111 l 92 0 l 278 0 l 278 925 l 324 925 l 415 833 l 415 232 b 467 135 415 181 447 154 l 551 50 b 647 0 571 31 596 0 l 925 0 l 925 1111 z m 290 -278 l 475 -278 l 615 -69 l 388 -69 z "},"Ŋ":{"ha":1017,"x_min":0,"x_max":0,"o":"m 739 1111 l 739 186 l 693 186 l 601 278 l 601 879 b 550 976 601 931 569 957 l 465 1061 b 369 1111 446 1081 421 1111 l 92 1111 l 92 0 l 278 0 l 278 925 l 324 925 l 415 833 l 415 232 b 467 135 415 181 447 154 l 551 50 b 647 0 571 31 596 0 l 739 0 l 739 -92 l 554 -92 l 554 -278 l 833 -278 l 925 -186 l 925 1111 z "},"Ñ":{"ha":1017,"x_min":0,"x_max":0,"o":"m 92 1389 l 92 1204 l 925 1204 l 925 1389 z m 739 186 l 693 186 l 601 278 l 601 879 b 550 976 601 931 569 957 l 465 1061 b 369 1111 446 1081 421 1111 l 92 1111 l 92 0 l 278 0 l 278 925 l 324 925 l 415 833 l 415 232 b 467 135 415 181 447 154 l 551 50 b 647 0 571 31 596 0 l 925 0 l 925 1111 l 739 1111 z "},"O":{"ha":1017,"x_min":0,"x_max":0,"o":"m 92 232 b 142 135 92 181 122 153 l 228 50 b 324 0 247 31 272 0 l 693 0 b 789 50 744 0 769 31 l 875 135 b 925 232 894 153 925 181 l 925 881 b 875 976 925 931 894 958 l 789 1061 b 693 1111 769 1081 744 1111 l 324 1111 b 228 1061 272 1111 247 1081 l 142 976 b 92 881 122 958 92 931 z m 278 278 l 278 833 l 369 926 l 647 926 l 739 833 l 739 278 l 647 185 l 369 185 z "},"Ó":{"ha":1017,"x_min":0,"x_max":0,"o":"m 624 1204 l 810 1389 l 532 1389 l 346 1204 z m 92 232 b 142 135 92 181 122 153 l 228 50 b 324 0 247 31 272 0 l 693 0 b 789 50 744 0 769 31 l 875 135 b 925 232 894 153 925 181 l 925 881 b 875 976 925 931 894 958 l 789 1061 b 693 1111 769 1081 744 1111 l 324 1111 b 228 1061 272 1111 247 1081 l 142 976 b 92 881 122 958 92 931 z m 278 278 l 278 833 l 369 926 l 647 926 l 739 833 l 739 278 l 647 185 l 369 185 z "},"Ô":{"ha":1017,"x_min":0,"x_max":0,"o":"m 601 1204 l 879 1204 l 693 1389 l 324 1389 l 138 1204 l 415 1204 l 508 1296 z m 92 232 b 142 135 92 181 122 153 l 228 50 b 324 0 247 31 272 0 l 693 0 b 789 50 744 0 769 31 l 875 135 b 925 232 894 153 925 181 l 925 881 b 875 976 925 931 894 958 l 789 1061 b 693 1111 769 1081 744 1111 l 324 1111 b 228 1061 272 1111 247 1081 l 142 976 b 92 881 122 958 92 931 z m 278 278 l 278 833 l 369 926 l 647 926 l 739 833 l 739 278 l 647 185 l 369 185 z "},"Ö":{"ha":1017,"x_min":0,"x_max":0,"o":"m 92 1389 l 92 1204 l 278 1204 l 278 1389 z m 739 1389 l 739 1204 l 925 1204 l 925 1389 z m 92 232 b 142 135 92 181 122 153 l 228 50 b 324 0 247 31 272 0 l 693 0 b 789 50 744 0 769 31 l 875 135 b 925 232 894 153 925 181 l 925 881 b 875 976 925 931 894 958 l 789 1061 b 693 1111 769 1081 744 1111 l 324 1111 b 228 1061 272 1111 247 1081 l 142 976 b 92 881 122 958 92 931 z m 278 278 l 278 833 l 369 926 l 647 926 l 739 833 l 739 278 l 647 185 l 369 185 z "},"Ò":{"ha":1017,"x_min":0,"x_max":0,"o":"m 393 1204 l 671 1204 l 485 1389 l 207 1389 z m 92 232 b 142 135 92 181 122 153 l 228 50 b 324 0 247 31 272 0 l 693 0 b 789 50 744 0 769 31 l 875 135 b 925 232 894 153 925 181 l 925 881 b 875 976 925 931 894 958 l 789 1061 b 693 1111 769 1081 744 1111 l 324 1111 b 228 1061 272 1111 247 1081 l 142 976 b 92 881 122 958 92 931 z m 278 278 l 278 833 l 369 926 l 647 926 l 739 833 l 739 278 l 647 185 l 369 185 z "},"Ő":{"ha":1017,"x_min":0,"x_max":0,"o":"m 394 1204 l 581 1389 l 303 1389 l 256 1204 z m 714 1204 l 900 1389 l 622 1389 l 575 1204 z m 92 232 b 142 135 92 181 122 153 l 228 50 b 324 0 247 31 272 0 l 693 0 b 789 50 744 0 769 31 l 875 135 b 925 232 894 153 925 181 l 925 881 b 875 976 925 931 894 958 l 789 1061 b 693 1111 769 1081 744 1111 l 324 1111 b 228 1061 272 1111 247 1081 l 142 976 b 92 881 122 958 92 931 z m 278 278 l 278 833 l 369 926 l 647 926 l 739 833 l 739 278 l 647 185 l 369 185 z "},"Ō":{"ha":1017,"x_min":0,"x_max":0,"o":"m 92 1389 l 92 1204 l 925 1204 l 925 1389 z m 92 232 b 142 135 92 181 122 153 l 228 50 b 324 0 247 31 272 0 l 693 0 b 789 50 744 0 769 31 l 875 135 b 925 232 894 153 925 181 l 925 881 b 875 976 925 931 894 958 l 789 1061 b 693 1111 769 1081 744 1111 l 324 1111 b 228 1061 272 1111 247 1081 l 142 976 b 92 881 122 958 92 931 z m 278 278 l 278 833 l 369 926 l 647 926 l 739 833 l 739 278 l 647 185 l 369 185 z "},"Ø":{"ha":1017,"x_min":0,"x_max":0,"o":"m 875 976 l 789 1061 b 693 1111 769 1081 744 1111 l 324 1111 b 228 1061 272 1111 247 1081 l 142 976 b 92 881 122 958 92 931 l 92 232 b 142 135 92 181 122 153 l 228 50 b 324 0 247 31 272 0 l 693 0 b 789 50 744 0 769 31 l 875 135 b 925 232 894 153 925 181 l 925 881 b 875 976 925 931 894 958 z m 278 833 l 369 926 l 544 926 l 318 236 l 278 278 z m 739 278 l 647 185 l 472 185 l 699 875 l 739 833 z "},"Õ":{"ha":1017,"x_min":0,"x_max":0,"o":"m 92 1389 l 92 1204 l 925 1204 l 925 1389 z m 92 232 b 142 135 92 181 122 153 l 228 50 b 324 0 247 31 272 0 l 693 0 b 789 50 744 0 769 31 l 875 135 b 925 232 894 153 925 181 l 925 881 b 875 976 925 931 894 958 l 789 1061 b 693 1111 769 1081 744 1111 l 324 1111 b 228 1061 272 1111 247 1081 l 142 976 b 92 881 122 958 92 931 z m 278 278 l 278 833 l 369 926 l 647 926 l 739 833 l 739 278 l 647 185 l 369 185 z "},"Œ":{"ha":1017,"x_min":0,"x_max":0,"o":"m 925 926 l 925 1111 l 324 1111 b 228 1061 272 1111 247 1081 l 142 976 b 92 881 122 958 92 931 l 92 232 b 142 135 92 181 122 153 l 228 50 b 324 0 247 31 272 0 l 925 0 l 925 185 l 672 185 l 672 463 l 878 463 l 878 649 l 672 649 l 672 926 z m 369 185 l 278 278 l 278 833 l 369 926 l 488 926 l 488 185 z "},"P":{"ha":1017,"x_min":0,"x_max":0,"o":"m 875 976 l 789 1061 b 693 1111 769 1081 744 1111 l 92 1111 l 92 0 l 278 0 l 278 415 l 693 415 b 789 465 744 415 769 446 l 875 551 b 925 649 894 571 925 597 l 925 881 b 875 976 925 931 894 958 z m 739 694 l 647 601 l 278 601 l 278 925 l 647 925 l 739 833 z "},"Þ":{"ha":1017,"x_min":0,"x_max":0,"o":"m 875 769 l 789 854 b 693 904 769 874 744 904 l 278 904 l 278 1111 l 92 1111 l 92 0 l 278 0 l 278 208 l 693 208 b 789 258 744 208 769 239 l 875 344 b 925 442 894 364 925 390 l 925 674 b 875 769 925 724 894 751 z m 739 488 l 647 394 l 278 394 l 278 718 l 647 718 l 739 626 z "},"Q":{"ha":1017,"x_min":0,"x_max":0,"o":"m 875 976 l 789 1061 b 693 1111 769 1081 744 1111 l 324 1111 b 228 1061 272 1111 247 1081 l 142 976 b 92 881 122 958 92 931 l 92 232 b 142 135 92 181 122 153 l 228 50 b 324 0 247 31 272 0 l 472 0 b 514 -51 483 -24 501 -39 l 599 -136 b 694 -186 618 -156 643 -186 l 833 -186 l 833 -1 l 740 -1 l 732 7 b 789 50 758 17 775 36 l 875 135 b 925 232 894 153 925 181 l 925 881 b 875 976 925 931 894 958 z m 739 278 l 647 185 l 369 185 l 278 278 l 278 833 l 369 926 l 647 926 l 739 833 z "},"R":{"ha":1017,"x_min":0,"x_max":0,"o":"m 925 649 l 925 881 b 875 976 925 931 894 958 l 789 1061 b 693 1111 769 1081 744 1111 l 92 1111 l 92 0 l 278 0 l 278 415 l 647 415 l 739 325 l 739 0 l 925 0 l 925 372 b 875 468 925 422 894 450 l 833 510 l 875 551 b 925 649 894 571 925 597 z m 278 603 l 278 925 l 647 925 l 739 833 l 739 694 l 647 603 z "},"Ŕ":{"ha":1017,"x_min":0,"x_max":0,"o":"m 810 1389 l 532 1389 l 346 1204 l 624 1204 z m 925 649 l 925 881 b 875 976 925 931 894 958 l 789 1061 b 693 1111 769 1081 744 1111 l 92 1111 l 92 0 l 278 0 l 278 415 l 647 415 l 739 325 l 739 0 l 925 0 l 925 372 b 875 468 925 422 894 450 l 833 510 l 875 551 b 925 649 894 571 925 597 z m 278 603 l 278 925 l 647 925 l 739 833 l 739 694 l 647 603 z "},"Ř":{"ha":1017,"x_min":0,"x_max":0,"o":"m 693 1204 l 879 1389 l 601 1389 l 508 1297 l 415 1389 l 138 1389 l 324 1204 z m 925 649 l 925 881 b 875 976 925 931 894 958 l 789 1061 b 693 1111 769 1081 744 1111 l 92 1111 l 92 0 l 278 0 l 278 415 l 647 415 l 739 325 l 739 0 l 925 0 l 925 372 b 875 468 925 422 894 450 l 833 510 l 875 551 b 925 649 894 571 925 597 z m 278 603 l 278 925 l 647 925 l 739 833 l 739 694 l 647 603 z "},"Ŗ":{"ha":1017,"x_min":0,"x_max":0,"o":"m 925 649 l 925 881 b 875 976 925 931 894 958 l 789 1061 b 693 1111 769 1081 744 1111 l 92 1111 l 92 0 l 278 0 l 278 415 l 647 415 l 739 325 l 739 0 l 925 0 l 925 372 b 875 468 925 422 894 450 l 833 510 l 875 551 b 925 649 894 571 925 597 z m 278 603 l 278 925 l 647 925 l 739 833 l 739 694 l 647 603 z m 290 -278 l 475 -278 l 615 -69 l 388 -69 z "},"S":{"ha":1017,"x_min":0,"x_max":0,"o":"m 875 976 l 790 1061 b 693 1111 771 1081 744 1111 l 325 1111 b 228 1061 274 1111 247 1081 l 143 976 b 93 879 124 957 93 931 l 93 694 b 143 599 93 643 124 618 l 228 514 b 325 464 247 494 274 464 l 647 464 l 739 372 l 739 278 l 647 185 l 369 185 l 278 278 l 278 371 l 92 371 l 92 232 b 143 135 92 181 124 154 l 228 50 b 324 0 247 31 272 0 l 693 0 b 789 50 744 0 769 32 l 875 135 b 925 232 894 153 925 181 l 925 418 b 875 515 925 469 893 496 b 789 600 860 532 806 583 b 693 650 769 619 744 650 l 368 650 l 279 740 l 278 833 l 371 925 l 647 926 l 739 833 l 739 740 l 925 740 l 925 881 b 875 976 925 931 894 957 z "},"Ś":{"ha":1017,"x_min":0,"x_max":0,"o":"m 624 1204 l 810 1389 l 532 1389 l 346 1204 z m 875 976 l 790 1061 b 693 1111 771 1081 744 1111 l 325 1111 b 228 1061 274 1111 247 1081 l 143 976 b 93 879 124 957 93 931 l 93 694 b 143 599 93 643 124 618 l 228 514 b 325 464 247 494 274 464 l 647 464 l 739 372 l 739 278 l 647 185 l 369 185 l 278 278 l 278 371 l 92 371 l 92 232 b 143 135 92 181 124 154 l 228 50 b 324 0 247 31 272 0 l 693 0 b 789 50 744 0 769 32 l 875 135 b 925 232 894 153 925 181 l 925 418 b 875 515 925 469 893 496 b 789 600 860 532 806 583 b 693 650 769 619 744 650 l 368 650 l 279 740 l 278 833 l 371 925 l 647 926 l 739 833 l 739 740 l 925 740 l 925 881 b 875 976 925 931 894 957 z "},"Š":{"ha":1017,"x_min":0,"x_max":0,"o":"m 415 1389 l 138 1389 l 324 1204 l 693 1204 l 879 1389 l 601 1389 l 508 1297 z m 875 976 l 790 1061 b 693 1111 771 1081 744 1111 l 325 1111 b 228 1061 274 1111 247 1081 l 143 976 b 93 879 124 957 93 931 l 93 694 b 143 599 93 643 124 618 l 228 514 b 325 464 247 494 274 464 l 647 464 l 739 372 l 739 278 l 647 185 l 369 185 l 278 278 l 278 371 l 92 371 l 92 232 b 143 135 92 181 124 154 l 228 50 b 324 0 247 31 272 0 l 693 0 b 789 50 744 0 769 32 l 875 135 b 925 232 894 153 925 181 l 925 418 b 875 515 925 469 893 496 b 789 600 860 532 806 583 b 693 650 769 619 744 650 l 368 650 l 279 740 l 278 833 l 371 925 l 647 926 l 739 833 l 739 740 l 925 740 l 925 881 b 875 976 925 931 894 957 z "},"Ş":{"ha":1017,"x_min":0,"x_max":0,"o":"m 925 740 l 925 881 b 875 976 925 931 894 957 l 790 1061 b 693 1111 771 1081 744 1111 l 325 1111 b 228 1061 274 1111 247 1081 l 143 976 b 93 879 124 957 93 931 l 93 694 b 143 599 93 643 124 618 l 228 514 b 325 464 247 494 274 464 l 647 464 l 739 372 l 739 278 l 647 185 l 369 185 l 278 278 l 278 371 l 92 371 l 92 232 b 143 135 92 181 124 154 l 228 50 b 324 0 247 31 272 0 l 417 0 l 417 -172 l 603 -172 l 603 -264 l 417 -264 l 417 -357 l 693 -357 b 786 -264 740 -357 786 -311 l 786 -172 b 693 -79 786 -125 740 -79 l 603 -79 l 603 0 l 693 0 b 789 50 744 0 769 32 l 875 135 b 925 232 894 153 925 181 l 925 418 b 875 515 925 469 893 496 b 789 600 860 532 806 583 b 693 650 769 619 744 650 l 368 650 l 279 740 l 278 833 l 371 925 l 647 926 l 739 833 l 739 740 z "},"Ș":{"ha":1017,"x_min":0,"x_max":0,"o":"m 875 976 l 790 1061 b 693 1111 771 1081 744 1111 l 325 1111 b 228 1061 274 1111 247 1081 l 143 976 b 93 879 124 957 93 931 l 93 694 b 143 599 93 643 124 618 l 228 514 b 325 464 247 494 274 464 l 647 464 l 739 372 l 739 278 l 647 185 l 369 185 l 278 278 l 278 371 l 92 371 l 92 232 b 143 135 92 181 124 154 l 228 50 b 324 0 247 31 272 0 l 693 0 b 789 50 744 0 769 32 l 875 135 b 925 232 894 153 925 181 l 925 418 b 875 515 925 469 893 496 b 789 600 860 532 806 583 b 693 650 769 619 744 650 l 368 650 l 279 740 l 278 833 l 371 925 l 647 926 l 739 833 l 739 740 l 925 740 l 925 881 b 875 976 925 931 894 957 z m 388 -69 l 290 -278 l 475 -278 l 615 -69 z "},"ẞ":{"ha":1017,"x_min":0,"x_max":0,"o":"m 925 926 l 925 1111 l 324 1111 b 228 1061 272 1111 247 1081 l 143 976 b 92 879 124 957 92 931 l 92 0 l 278 0 l 278 835 l 369 925 l 693 926 l 461 649 l 461 463 l 739 463 l 739 185 l 461 185 l 461 0 l 786 0 b 925 139 856 0 925 69 l 925 510 b 786 649 925 579 856 649 l 693 649 z "},"T":{"ha":1017,"x_min":0,"x_max":0,"o":"m 925 1111 l 92 1111 l 92 926 l 415 926 l 415 0 l 601 0 l 601 926 l 925 926 z "},"Ŧ":{"ha":1017,"x_min":0,"x_max":0,"o":"m 925 926 l 925 1111 l 92 1111 l 92 926 l 415 926 l 415 649 l 278 649 l 278 463 l 415 463 l 415 0 l 601 0 l 601 463 l 740 463 l 740 649 l 601 649 l 601 926 z "},"Ť":{"ha":1017,"x_min":0,"x_max":0,"o":"m 693 1204 l 879 1389 l 601 1389 l 508 1297 l 415 1389 l 138 1389 l 324 1204 z m 925 1111 l 92 1111 l 92 926 l 415 926 l 415 0 l 601 0 l 601 926 l 925 926 z "},"Ţ":{"ha":1017,"x_min":0,"x_max":0,"o":"m 601 -79 l 601 926 l 925 926 l 925 1111 l 92 1111 l 92 926 l 415 926 l 415 -172 l 601 -172 l 601 -264 l 415 -264 l 415 -357 l 692 -357 b 785 -264 739 -357 785 -311 l 785 -172 b 692 -79 785 -125 739 -79 z "},"Ț":{"ha":1017,"x_min":0,"x_max":0,"o":"m 92 1111 l 92 926 l 415 926 l 415 0 l 601 0 l 601 926 l 925 926 l 925 1111 z m 289 -278 l 474 -278 l 614 -69 l 386 -69 z "},"U":{"ha":1017,"x_min":0,"x_max":0,"o":"m 925 1111 l 739 1111 l 739 278 l 647 185 l 369 185 l 278 278 l 278 1111 l 92 1111 l 92 232 b 143 135 92 181 124 154 l 228 50 b 324 0 247 31 272 0 l 693 0 b 789 50 744 0 769 32 l 875 135 b 925 232 894 153 925 181 z "},"Ú":{"ha":1017,"x_min":0,"x_max":0,"o":"m 624 1204 l 810 1389 l 532 1389 l 346 1204 z m 925 1111 l 739 1111 l 739 278 l 647 185 l 369 185 l 278 278 l 278 1111 l 92 1111 l 92 232 b 143 135 92 181 124 154 l 228 50 b 324 0 247 31 272 0 l 693 0 b 789 50 744 0 769 32 l 875 135 b 925 232 894 153 925 181 z "},"Û":{"ha":1017,"x_min":0,"x_max":0,"o":"m 601 1204 l 879 1204 l 693 1389 l 324 1389 l 138 1204 l 415 1204 l 508 1296 z m 925 1111 l 739 1111 l 739 278 l 647 185 l 369 185 l 278 278 l 278 1111 l 92 1111 l 92 232 b 143 135 92 181 124 154 l 228 50 b 324 0 247 31 272 0 l 693 0 b 789 50 744 0 769 32 l 875 135 b 925 232 894 153 925 181 z "},"Ü":{"ha":1017,"x_min":0,"x_max":0,"o":"m 92 1389 l 92 1204 l 278 1204 l 278 1389 z m 739 1389 l 739 1204 l 925 1204 l 925 1389 z m 925 1111 l 739 1111 l 739 278 l 647 185 l 369 185 l 278 278 l 278 1111 l 92 1111 l 92 232 b 143 135 92 181 124 154 l 228 50 b 324 0 247 31 272 0 l 693 0 b 789 50 744 0 769 32 l 875 135 b 925 232 894 153 925 181 z "},"Ù":{"ha":1017,"x_min":0,"x_max":0,"o":"m 393 1204 l 671 1204 l 485 1389 l 207 1389 z m 925 1111 l 739 1111 l 739 278 l 647 185 l 369 185 l 278 278 l 278 1111 l 92 1111 l 92 232 b 143 135 92 181 124 154 l 228 50 b 324 0 247 31 272 0 l 693 0 b 789 50 744 0 769 32 l 875 135 b 925 232 894 153 925 181 z "},"Ű":{"ha":1017,"x_min":0,"x_max":0,"o":"m 394 1204 l 581 1389 l 303 1389 l 256 1204 z m 714 1204 l 900 1389 l 622 1389 l 575 1204 z m 925 1111 l 739 1111 l 739 278 l 647 185 l 369 185 l 278 278 l 278 1111 l 92 1111 l 92 232 b 143 135 92 181 124 154 l 228 50 b 324 0 247 31 272 0 l 693 0 b 789 50 744 0 769 32 l 875 135 b 925 232 894 153 925 181 z "},"Ū":{"ha":1017,"x_min":0,"x_max":0,"o":"m 92 1389 l 92 1204 l 925 1204 l 925 1389 z m 925 1111 l 739 1111 l 739 278 l 647 185 l 369 185 l 278 278 l 278 1111 l 92 1111 l 92 232 b 143 135 92 181 124 154 l 228 50 b 324 0 247 31 272 0 l 693 0 b 789 50 744 0 769 32 l 875 135 b 925 232 894 153 925 181 z "},"Ų":{"ha":1017,"x_min":0,"x_max":0,"o":"m 739 1111 l 739 278 l 647 185 l 369 185 l 278 278 l 278 1111 l 92 1111 l 92 232 b 143 135 92 181 124 154 l 228 50 b 324 0 247 31 272 0 l 546 0 l 546 -101 b 639 -194 546 -149 592 -194 l 824 -194 l 824 -101 l 732 -101 l 732 7 b 789 50 758 18 775 38 l 875 135 b 925 232 894 153 925 181 l 925 1111 z "},"Ů":{"ha":1017,"x_min":0,"x_max":0,"o":"m 342 1297 b 435 1204 342 1250 388 1204 l 582 1204 b 675 1297 629 1204 675 1250 l 675 1444 b 582 1538 675 1492 629 1538 l 435 1538 b 342 1444 388 1538 342 1492 z m 463 1325 l 463 1417 l 554 1417 l 554 1325 z m 925 1111 l 739 1111 l 739 278 l 647 185 l 369 185 l 278 278 l 278 1111 l 92 1111 l 92 232 b 143 135 92 181 124 154 l 228 50 b 324 0 247 31 272 0 l 693 0 b 789 50 744 0 769 32 l 875 135 b 925 232 894 153 925 181 z "},"V":{"ha":1017,"x_min":0,"x_max":0,"o":"m 92 369 l 92 1111 l 278 1111 l 278 417 l 508 185 l 739 417 l 739 1111 l 925 1111 l 925 369 b 875 274 925 319 894 293 l 651 50 b 554 0 632 31 606 0 l 463 0 b 365 50 411 0 385 31 l 142 274 b 92 369 122 293 92 319 z "},"W":{"ha":1017,"x_min":0,"x_max":0,"o":"m 739 1111 l 739 186 l 693 186 l 601 278 l 601 1111 l 415 1111 l 415 278 l 324 186 l 278 186 l 278 1111 l 92 1111 l 92 0 l 369 0 b 465 50 421 0 446 31 l 508 93 l 551 50 b 647 0 571 31 596 0 l 925 0 l 925 1111 z "},"Ẃ":{"ha":1017,"x_min":0,"x_max":0,"o":"m 810 1389 l 532 1389 l 346 1204 l 624 1204 z m 739 1111 l 739 186 l 693 186 l 601 278 l 601 1111 l 415 1111 l 415 278 l 324 186 l 278 186 l 278 1111 l 92 1111 l 92 0 l 369 0 b 465 50 421 0 446 31 l 508 93 l 551 50 b 647 0 571 31 596 0 l 925 0 l 925 1111 z "},"Ŵ":{"ha":1017,"x_min":0,"x_max":0,"o":"m 508 1296 l 601 1204 l 879 1204 l 693 1389 l 324 1389 l 138 1204 l 415 1204 z m 739 1111 l 739 186 l 693 186 l 601 278 l 601 1111 l 415 1111 l 415 278 l 324 186 l 278 186 l 278 1111 l 92 1111 l 92 0 l 369 0 b 465 50 421 0 446 31 l 508 93 l 551 50 b 647 0 571 31 596 0 l 925 0 l 925 1111 z "},"Ẅ":{"ha":1017,"x_min":0,"x_max":0,"o":"m 278 1389 l 92 1389 l 92 1204 l 278 1204 z m 739 1389 l 739 1204 l 925 1204 l 925 1389 z m 739 186 l 693 186 l 601 278 l 601 1111 l 415 1111 l 415 278 l 324 186 l 278 186 l 278 1111 l 92 1111 l 92 0 l 369 0 b 465 50 421 0 446 31 l 508 93 l 551 50 b 647 0 571 31 596 0 l 925 0 l 925 1111 l 739 1111 z "},"Ẁ":{"ha":1017,"x_min":0,"x_max":0,"o":"m 671 1204 l 485 1389 l 207 1389 l 393 1204 z m 739 1111 l 739 186 l 693 186 l 601 278 l 601 1111 l 415 1111 l 415 278 l 324 186 l 278 186 l 278 1111 l 92 1111 l 92 0 l 369 0 b 465 50 421 0 446 31 l 508 93 l 551 50 b 647 0 571 31 596 0 l 925 0 l 925 1111 z "},"X":{"ha":1017,"x_min":0,"x_max":0,"o":"m 925 879 l 925 1111 l 739 1111 l 739 925 l 508 694 l 278 925 l 278 1111 l 92 1111 l 92 879 b 143 783 92 828 125 803 l 368 556 l 143 328 b 92 232 125 308 92 283 l 92 0 l 278 0 l 278 186 l 508 417 l 739 186 l 739 0 l 925 0 l 925 232 b 874 328 925 283 892 308 l 649 556 l 874 783 b 925 879 892 803 925 828 z "},"Y":{"ha":1017,"x_min":0,"x_max":0,"o":"m 739 1111 l 739 699 l 647 607 l 369 607 l 278 699 l 278 1111 l 92 1111 l 92 653 b 143 557 92 601 124 576 l 228 472 b 324 421 247 453 272 421 l 417 421 l 415 0 l 601 0 l 601 421 l 693 421 b 789 471 744 421 771 453 l 874 557 b 925 653 892 576 925 601 l 925 1111 z "},"Ý":{"ha":1017,"x_min":0,"x_max":0,"o":"m 810 1389 l 532 1389 l 346 1204 l 624 1204 z m 739 1111 l 739 699 l 647 607 l 369 607 l 278 699 l 278 1111 l 92 1111 l 92 653 b 143 557 92 601 124 576 l 228 472 b 324 421 247 453 272 421 l 417 421 l 415 0 l 601 0 l 601 421 l 693 421 b 789 471 744 421 771 453 l 874 557 b 925 653 892 576 925 601 l 925 1111 z "},"Ŷ":{"ha":1017,"x_min":0,"x_max":0,"o":"m 508 1296 l 601 1204 l 879 1204 l 693 1389 l 324 1389 l 138 1204 l 415 1204 z m 739 1111 l 739 699 l 647 607 l 369 607 l 278 699 l 278 1111 l 92 1111 l 92 653 b 143 557 92 601 124 576 l 228 472 b 324 421 247 453 272 421 l 417 421 l 415 0 l 601 0 l 601 421 l 693 421 b 789 471 744 421 771 453 l 874 557 b 925 653 892 576 925 601 l 925 1111 z "},"Ÿ":{"ha":1017,"x_min":0,"x_max":0,"o":"m 278 1389 l 92 1389 l 92 1204 l 278 1204 z m 739 1389 l 739 1204 l 925 1204 l 925 1389 z m 739 699 l 647 607 l 369 607 l 278 699 l 278 1111 l 92 1111 l 92 653 b 143 557 92 601 124 576 l 228 472 b 324 421 247 453 272 421 l 417 421 l 415 0 l 601 0 l 601 421 l 693 421 b 789 471 744 421 771 453 l 874 557 b 925 653 892 576 925 601 l 925 1111 l 739 1111 z "},"Ỳ":{"ha":1017,"x_min":0,"x_max":0,"o":"m 671 1204 l 485 1389 l 207 1389 l 393 1204 z m 739 1111 l 739 699 l 647 607 l 369 607 l 278 699 l 278 1111 l 92 1111 l 92 653 b 143 557 92 601 124 576 l 228 472 b 324 421 247 453 272 421 l 417 421 l 415 0 l 601 0 l 601 421 l 693 421 b 789 471 744 421 771 453 l 874 557 b 925 653 892 576 925 601 l 925 1111 z "},"Z":{"ha":1017,"x_min":0,"x_max":0,"o":"m 92 0 l 925 0 l 925 185 l 278 185 l 278 372 l 367 463 l 693 463 b 789 511 744 463 769 492 l 874 596 b 925 693 893 615 925 642 l 925 1111 l 92 1111 l 92 926 l 739 926 l 739 739 l 650 649 l 324 649 b 228 600 272 649 247 619 l 143 515 b 92 418 124 496 92 469 z "},"Ź":{"ha":1017,"x_min":0,"x_max":0,"o":"m 624 1204 l 810 1389 l 532 1389 l 346 1204 z m 92 0 l 925 0 l 925 185 l 278 185 l 278 372 l 367 463 l 693 463 b 789 511 744 463 769 492 l 874 596 b 925 693 893 615 925 642 l 925 1111 l 92 1111 l 92 926 l 739 926 l 739 739 l 650 649 l 324 649 b 228 600 272 649 247 619 l 143 515 b 92 418 124 496 92 469 z "},"Ž":{"ha":1017,"x_min":0,"x_max":0,"o":"m 415 1389 l 138 1389 l 324 1204 l 693 1204 l 879 1389 l 601 1389 l 508 1297 z m 92 0 l 925 0 l 925 185 l 278 185 l 278 372 l 367 463 l 693 463 b 789 511 744 463 769 492 l 874 596 b 925 693 893 615 925 642 l 925 1111 l 92 1111 l 92 926 l 739 926 l 739 739 l 650 649 l 324 649 b 228 600 272 649 247 619 l 143 515 b 92 418 124 496 92 469 z "},"Ż":{"ha":1017,"x_min":0,"x_max":0,"o":"m 415 1389 l 415 1201 l 601 1201 l 601 1389 z m 92 0 l 925 0 l 925 185 l 278 185 l 278 372 l 367 463 l 693 463 b 789 511 744 463 769 492 l 874 596 b 925 693 893 615 925 642 l 925 1111 l 92 1111 l 92 926 l 739 926 l 739 739 l 650 649 l 324 649 b 228 600 272 649 247 619 l 143 515 b 92 418 124 496 92 469 z "},"a":{"ha":1017,"x_min":0,"x_max":0,"o":"m 875 699 l 789 783 b 693 833 769 803 744 833 l 92 833 l 92 647 l 649 647 l 739 556 l 739 510 l 183 510 l 92 418 l 92 92 l 183 0 l 925 0 l 925 601 b 875 699 925 653 894 681 z m 278 186 l 278 324 l 739 324 l 739 186 z "},"á":{"ha":1017,"x_min":0,"x_max":0,"o":"m 810 1111 l 532 1111 l 346 926 l 624 926 z m 875 699 l 789 783 b 693 833 769 803 744 833 l 92 833 l 92 647 l 649 647 l 739 556 l 739 510 l 183 510 l 92 418 l 92 92 l 183 0 l 925 0 l 925 601 b 875 699 925 653 894 681 z m 278 186 l 278 324 l 739 324 l 739 186 z "},"ă":{"ha":1017,"x_min":0,"x_max":0,"o":"m 435 926 l 582 926 b 675 1019 629 926 675 972 l 675 1111 l 554 1111 l 554 1047 l 463 1047 l 463 1111 l 342 1111 l 342 1019 b 435 926 342 972 388 926 z m 875 699 l 789 783 b 693 833 769 803 744 833 l 92 833 l 92 647 l 649 647 l 739 556 l 739 510 l 183 510 l 92 418 l 92 92 l 183 0 l 925 0 l 925 601 b 875 699 925 653 894 681 z m 278 186 l 278 324 l 739 324 l 739 186 z "},"â":{"ha":1017,"x_min":0,"x_max":0,"o":"m 508 1018 l 601 926 l 879 926 l 693 1111 l 324 1111 l 138 926 l 415 926 z m 875 699 l 789 783 b 693 833 769 803 744 833 l 92 833 l 92 647 l 649 647 l 739 556 l 739 510 l 183 510 l 92 418 l 92 92 l 183 0 l 925 0 l 925 601 b 875 699 925 653 894 681 z m 278 186 l 278 324 l 739 324 l 739 186 z "},"ä":{"ha":1017,"x_min":0,"x_max":0,"o":"m 278 1111 l 92 1111 l 92 926 l 278 926 z m 739 1111 l 739 926 l 925 926 l 925 1111 z m 875 699 l 789 783 b 693 833 769 803 744 833 l 92 833 l 92 647 l 649 647 l 739 556 l 739 510 l 183 510 l 92 418 l 92 92 l 183 0 l 925 0 l 925 601 b 875 699 925 653 894 681 z m 278 186 l 278 324 l 739 324 l 739 186 z "},"à":{"ha":1017,"x_min":0,"x_max":0,"o":"m 671 926 l 485 1111 l 207 1111 l 393 926 z m 875 699 l 789 783 b 693 833 769 803 744 833 l 92 833 l 92 647 l 649 647 l 739 556 l 739 510 l 183 510 l 92 418 l 92 92 l 183 0 l 925 0 l 925 601 b 875 699 925 653 894 681 z m 278 186 l 278 324 l 739 324 l 739 186 z "},"ā":{"ha":1017,"x_min":0,"x_max":0,"o":"m 92 1111 l 92 926 l 925 926 l 925 1111 z m 875 699 l 789 783 b 693 833 769 803 744 833 l 92 833 l 92 647 l 649 647 l 739 556 l 739 510 l 183 510 l 92 418 l 92 92 l 183 0 l 925 0 l 925 601 b 875 699 925 653 894 681 z m 278 186 l 278 324 l 739 324 l 739 186 z "},"ą":{"ha":1017,"x_min":0,"x_max":0,"o":"m 925 0 l 925 601 b 875 699 925 653 894 681 l 789 783 b 693 833 769 803 744 833 l 92 833 l 92 647 l 649 647 l 739 556 l 739 510 l 183 510 l 92 418 l 92 92 l 183 0 l 647 0 l 647 -101 b 740 -194 647 -149 693 -194 l 925 -194 l 925 -101 l 833 -101 l 833 0 z m 278 324 l 739 324 l 739 186 l 278 186 z "},"å":{"ha":1017,"x_min":0,"x_max":0,"o":"m 435 926 l 582 926 b 675 1019 629 926 675 972 l 675 1167 b 582 1260 675 1214 629 1260 l 435 1260 b 342 1167 388 1260 342 1214 l 342 1019 b 435 926 342 972 388 926 z m 463 1139 l 554 1139 l 554 1047 l 463 1047 z m 875 699 l 789 783 b 693 833 769 803 744 833 l 92 833 l 92 647 l 649 647 l 739 556 l 739 510 l 183 510 l 92 418 l 92 92 l 183 0 l 925 0 l 925 601 b 875 699 925 653 894 681 z m 278 186 l 278 324 l 739 324 l 739 186 z "},"ã":{"ha":1017,"x_min":0,"x_max":0,"o":"m 92 1111 l 92 926 l 925 926 l 925 1111 z m 875 699 l 789 783 b 693 833 769 803 744 833 l 92 833 l 92 647 l 649 647 l 739 556 l 739 510 l 183 510 l 92 418 l 92 92 l 183 0 l 925 0 l 925 601 b 875 699 925 653 894 681 z m 278 186 l 278 324 l 739 324 l 739 186 z "},"æ":{"ha":1017,"x_min":0,"x_max":0,"o":"m 833 833 l 92 833 l 92 647 l 415 647 l 415 508 l 183 508 l 92 417 l 92 92 l 183 0 l 925 0 l 925 186 l 601 186 l 601 325 l 833 325 l 925 417 l 925 742 z m 739 647 l 739 511 l 601 511 l 601 647 z m 278 186 l 278 322 l 415 322 l 415 186 z "},"b":{"ha":1017,"x_min":0,"x_max":0,"o":"m 875 699 l 789 783 b 693 833 769 803 744 833 l 278 833 l 278 1069 l 92 1069 l 92 0 l 693 0 b 789 50 744 0 769 31 l 875 135 b 925 232 894 153 925 181 l 925 603 b 875 699 925 653 894 681 z m 739 278 l 647 185 l 278 185 l 278 649 l 647 649 l 739 556 z "},"c":{"ha":1017,"x_min":0,"x_max":0,"o":"m 925 833 l 324 833 b 228 783 272 833 247 803 l 142 699 b 92 603 122 681 92 653 l 92 232 b 142 135 92 181 122 153 l 228 50 b 324 0 247 31 272 0 l 925 0 l 925 185 l 369 185 l 278 278 l 278 556 l 369 649 l 739 649 l 739 556 l 925 556 z "},"ć":{"ha":1017,"x_min":0,"x_max":0,"o":"m 810 1111 l 532 1111 l 346 926 l 624 926 z m 925 833 l 324 833 b 228 783 272 833 247 803 l 142 699 b 92 603 122 681 92 653 l 92 232 b 142 135 92 181 122 153 l 228 50 b 324 0 247 31 272 0 l 925 0 l 925 185 l 369 185 l 278 278 l 278 556 l 369 649 l 739 649 l 739 556 l 925 556 z "},"č":{"ha":1017,"x_min":0,"x_max":0,"o":"m 693 926 l 879 1111 l 601 1111 l 508 1019 l 415 1111 l 138 1111 l 324 926 z m 925 833 l 324 833 b 228 783 272 833 247 803 l 142 699 b 92 603 122 681 92 653 l 92 232 b 142 135 92 181 122 153 l 228 50 b 324 0 247 31 272 0 l 925 0 l 925 185 l 369 185 l 278 278 l 278 556 l 369 649 l 739 649 l 739 556 l 925 556 z "},"ç":{"ha":1017,"x_min":0,"x_max":0,"o":"m 925 833 l 324 833 b 228 783 272 833 247 803 l 142 699 b 92 603 122 681 92 653 l 92 232 b 142 135 92 181 122 153 l 228 50 b 324 0 247 31 272 0 l 486 0 l 486 -172 l 672 -172 l 672 -264 l 486 -264 l 486 -357 l 763 -357 b 856 -264 810 -357 856 -311 l 856 -172 b 763 -79 856 -125 810 -79 l 672 -79 l 672 0 l 925 0 l 925 185 l 369 185 l 278 278 l 278 556 l 369 649 l 739 649 l 739 556 l 925 556 z "},"ċ":{"ha":1017,"x_min":0,"x_max":0,"o":"m 601 1111 l 415 1111 l 415 924 l 601 924 z m 925 833 l 324 833 b 228 783 272 833 247 803 l 142 699 b 92 603 122 681 92 653 l 92 232 b 142 135 92 181 122 153 l 228 50 b 324 0 247 31 272 0 l 925 0 l 925 185 l 369 185 l 278 278 l 278 556 l 369 649 l 739 649 l 739 556 l 925 556 z "},"d":{"ha":1017,"x_min":0,"x_max":0,"o":"m 739 1069 l 739 833 l 324 833 b 228 783 272 833 247 803 l 142 699 b 92 603 122 681 92 653 l 92 232 b 142 135 92 181 122 153 l 228 50 b 324 0 247 31 272 0 l 925 0 l 925 1069 z m 739 185 l 369 185 l 278 278 l 278 556 l 369 649 l 739 649 z "},"ð":{"ha":1017,"x_min":0,"x_max":0,"o":"m 875 610 l 682 803 l 786 842 l 786 1042 l 536 947 l 372 1111 l 231 976 l 335 872 l 231 833 l 231 633 l 479 726 l 696 510 l 183 510 l 92 418 l 92 92 l 183 0 l 693 0 b 789 50 744 0 769 31 l 875 135 b 925 231 894 153 925 181 l 925 513 b 875 610 925 564 894 590 z m 647 185 l 278 185 l 278 324 l 739 324 l 739 278 z "},"ď":{"ha":1017,"x_min":0,"x_max":0,"o":"m 925 1163 l 924 1347 l 726 1347 l 740 1200 l 660 1347 l 461 1347 l 556 1163 z m 739 833 l 324 833 b 228 783 272 833 247 803 l 142 699 b 92 603 122 681 92 653 l 92 232 b 142 135 92 181 122 153 l 228 50 b 324 0 247 31 272 0 l 925 0 l 925 1069 l 739 1069 z m 739 185 l 369 185 l 278 278 l 278 556 l 369 649 l 739 649 z "},"đ":{"ha":1017,"x_min":0,"x_max":0,"o":"m 925 975 l 833 975 l 833 1069 l 647 1069 l 647 975 l 279 975 l 279 789 l 647 789 l 647 694 l 324 694 b 228 644 272 694 247 664 l 142 560 b 92 464 122 542 92 514 l 92 232 b 142 135 92 181 122 153 l 228 50 b 324 0 247 31 272 0 l 833 0 l 833 789 l 925 789 z m 647 185 l 369 185 l 278 278 l 278 417 l 369 510 l 647 510 z "},"e":{"ha":1017,"x_min":0,"x_max":0,"o":"m 324 833 b 228 783 272 833 247 803 l 142 699 b 92 603 122 681 92 653 l 92 232 b 142 135 92 181 122 153 l 228 50 b 324 0 247 31 272 0 l 925 0 l 925 186 l 368 186 l 278 278 l 278 324 l 833 324 l 925 415 l 925 833 z m 739 510 l 278 510 l 278 556 l 368 647 l 739 647 z "},"é":{"ha":1017,"x_min":0,"x_max":0,"o":"m 810 1111 l 532 1111 l 346 926 l 624 926 z m 324 833 b 228 783 272 833 247 803 l 142 699 b 92 603 122 681 92 653 l 92 232 b 142 135 92 181 122 153 l 228 50 b 324 0 247 31 272 0 l 925 0 l 925 186 l 368 186 l 278 278 l 278 324 l 833 324 l 925 415 l 925 833 z m 739 510 l 278 510 l 278 556 l 368 647 l 739 647 z "},"ě":{"ha":1017,"x_min":0,"x_max":0,"o":"m 693 926 l 879 1111 l 601 1111 l 508 1019 l 415 1111 l 138 1111 l 324 926 z m 324 833 b 228 783 272 833 247 803 l 142 699 b 92 603 122 681 92 653 l 92 232 b 142 135 92 181 122 153 l 228 50 b 324 0 247 31 272 0 l 925 0 l 925 186 l 368 186 l 278 278 l 278 324 l 833 324 l 925 415 l 925 833 z m 739 510 l 278 510 l 278 556 l 368 647 l 739 647 z "},"ê":{"ha":1017,"x_min":0,"x_max":0,"o":"m 508 1018 l 601 926 l 879 926 l 693 1111 l 324 1111 l 138 926 l 415 926 z m 324 833 b 228 783 272 833 247 803 l 142 699 b 92 603 122 681 92 653 l 92 232 b 142 135 92 181 122 153 l 228 50 b 324 0 247 31 272 0 l 925 0 l 925 186 l 368 186 l 278 278 l 278 324 l 833 324 l 925 415 l 925 833 z m 739 510 l 278 510 l 278 556 l 368 647 l 739 647 z "},"ë":{"ha":1017,"x_min":0,"x_max":0,"o":"m 278 1111 l 92 1111 l 92 926 l 278 926 z m 739 1111 l 739 926 l 925 926 l 925 1111 z m 228 783 l 142 699 b 92 603 122 681 92 653 l 92 232 b 142 135 92 181 122 153 l 228 50 b 324 0 247 31 272 0 l 925 0 l 925 186 l 368 186 l 278 278 l 278 324 l 833 324 l 925 415 l 925 833 l 324 833 b 228 783 272 833 247 803 z m 739 647 l 739 510 l 278 510 l 278 556 l 368 647 z "},"ė":{"ha":1017,"x_min":0,"x_max":0,"o":"m 632 1114 l 446 1114 l 446 926 l 632 926 z m 324 833 b 228 783 272 833 247 803 l 142 699 b 92 603 122 681 92 653 l 92 232 b 142 135 92 181 122 153 l 228 50 b 324 0 247 31 272 0 l 925 0 l 925 186 l 368 186 l 278 278 l 278 324 l 833 324 l 925 415 l 925 833 z m 739 510 l 278 510 l 278 556 l 368 647 l 739 647 z "},"è":{"ha":1017,"x_min":0,"x_max":0,"o":"m 671 926 l 485 1111 l 207 1111 l 393 926 z m 324 833 b 228 783 272 833 247 803 l 142 699 b 92 603 122 681 92 653 l 92 232 b 142 135 92 181 122 153 l 228 50 b 324 0 247 31 272 0 l 925 0 l 925 186 l 368 186 l 278 278 l 278 324 l 833 324 l 925 415 l 925 833 z m 739 510 l 278 510 l 278 556 l 368 647 l 739 647 z "},"ē":{"ha":1017,"x_min":0,"x_max":0,"o":"m 92 1111 l 92 926 l 925 926 l 925 1111 z m 228 783 l 142 699 b 92 603 122 681 92 653 l 92 232 b 142 135 92 181 122 153 l 228 50 b 324 0 247 31 272 0 l 925 0 l 925 186 l 368 186 l 278 278 l 278 324 l 833 324 l 925 415 l 925 833 l 324 833 b 228 783 272 833 247 803 z m 739 647 l 739 510 l 278 510 l 278 556 l 368 647 z "},"ę":{"ha":1017,"x_min":0,"x_max":0,"o":"m 324 833 b 228 783 272 833 247 803 l 142 699 b 92 603 122 681 92 653 l 92 232 b 142 135 92 181 122 153 l 228 50 b 324 0 247 31 272 0 l 647 0 l 647 -101 b 740 -194 647 -149 693 -194 l 925 -194 l 925 -101 l 833 -101 l 833 0 l 925 0 l 925 186 l 368 186 l 278 278 l 278 324 l 833 324 l 925 415 l 925 833 z m 739 510 l 278 510 l 278 556 l 368 647 l 739 647 z "},"f":{"ha":1017,"x_min":0,"x_max":0,"o":"m 601 968 l 925 968 l 925 1153 l 556 1153 b 460 1103 504 1153 479 1122 l 374 1018 b 324 922 354 1000 324 972 l 324 833 l 92 833 l 92 647 l 324 647 l 324 0 l 510 0 l 510 647 l 925 647 l 925 833 l 510 833 l 510 875 z "},"g":{"ha":1017,"x_min":0,"x_max":0,"o":"m 324 833 b 228 783 272 833 247 803 l 142 699 b 92 603 122 681 92 653 l 92 232 b 142 135 92 181 122 153 l 228 50 b 324 0 247 31 272 0 l 739 0 l 739 -42 l 647 -135 l 228 -135 l 228 -319 l 693 -319 b 789 -269 744 -319 769 -289 l 875 -185 b 925 -87 894 -167 925 -139 l 925 833 z m 739 185 l 369 185 l 278 278 l 278 556 l 369 649 l 739 649 z "},"ğ":{"ha":1017,"x_min":0,"x_max":0,"o":"m 490 926 l 638 926 b 731 1019 685 926 731 972 l 731 1111 l 610 1111 l 610 1047 l 518 1047 l 518 1111 l 397 1111 l 397 1019 b 490 926 397 972 443 926 z m 324 833 b 228 783 272 833 247 803 l 142 699 b 92 603 122 681 92 653 l 92 232 b 142 135 92 181 122 153 l 228 50 b 324 0 247 31 272 0 l 739 0 l 739 -42 l 647 -135 l 228 -135 l 228 -319 l 693 -319 b 789 -269 744 -319 769 -289 l 875 -185 b 925 -87 894 -167 925 -139 l 925 833 z m 739 185 l 369 185 l 278 278 l 278 556 l 369 649 l 739 649 z "},"ģ":{"ha":1017,"x_min":0,"x_max":0,"o":"m 726 903 l 586 1111 l 401 1111 l 499 903 z m 324 833 b 228 783 272 833 247 803 l 142 699 b 92 603 122 681 92 653 l 92 232 b 142 135 92 181 122 153 l 228 50 b 324 0 247 31 272 0 l 739 0 l 739 -42 l 647 -135 l 228 -135 l 228 -319 l 693 -319 b 789 -269 744 -319 769 -289 l 875 -185 b 925 -87 894 -167 925 -139 l 925 833 z m 739 185 l 369 185 l 278 278 l 278 556 l 369 649 l 739 649 z "},"ġ":{"ha":1017,"x_min":0,"x_max":0,"o":"m 657 1111 l 471 1111 l 471 924 l 657 924 z m 324 833 b 228 783 272 833 247 803 l 142 699 b 92 603 122 681 92 653 l 92 232 b 142 135 92 181 122 153 l 228 50 b 324 0 247 31 272 0 l 739 0 l 739 -42 l 647 -135 l 228 -135 l 228 -319 l 693 -319 b 789 -269 744 -319 769 -289 l 875 -185 b 925 -87 894 -167 925 -139 l 925 833 z m 739 185 l 369 185 l 278 278 l 278 556 l 369 649 l 739 649 z "},"h":{"ha":1017,"x_min":0,"x_max":0,"o":"m 875 699 l 789 783 b 693 833 769 803 744 833 l 278 833 l 278 1069 l 92 1069 l 92 833 b 92 649 92 776 92 715 l 92 0 l 278 0 l 278 649 l 647 649 l 739 556 l 739 0 l 925 0 l 925 603 b 875 699 925 653 894 681 z "},"ħ":{"ha":1017,"x_min":0,"x_max":0,"o":"m 875 560 l 789 644 b 693 694 769 664 744 694 l 369 694 l 369 789 l 738 789 l 738 975 l 369 975 l 369 1069 l 183 1069 l 183 975 l 92 975 l 92 789 l 183 789 l 183 694 b 183 510 183 632 183 571 l 183 0 l 369 0 l 369 510 l 647 510 l 739 417 l 739 0 l 925 0 l 925 464 b 875 560 925 514 894 542 z "},"i":{"ha":1017,"x_min":0,"x_max":0,"o":"m 601 1111 l 415 1111 l 415 924 l 601 924 z m 601 185 l 601 833 l 92 833 l 92 647 l 415 647 l 415 185 l 92 185 l 92 0 l 925 0 l 925 185 z "},"ı":{"ha":1017,"x_min":0,"x_max":0,"o":"m 601 185 l 601 833 l 92 833 l 92 647 l 415 647 l 415 185 l 92 185 l 92 0 l 925 0 l 925 185 z "},"í":{"ha":1017,"x_min":0,"x_max":0,"o":"m 810 1111 l 532 1111 l 346 926 l 624 926 z m 601 185 l 601 833 l 92 833 l 92 647 l 415 647 l 415 185 l 92 185 l 92 0 l 925 0 l 925 185 z "},"î":{"ha":1017,"x_min":0,"x_max":0,"o":"m 508 1018 l 601 926 l 879 926 l 693 1111 l 324 1111 l 138 926 l 415 926 z m 601 185 l 601 833 l 92 833 l 92 647 l 415 647 l 415 185 l 92 185 l 92 0 l 925 0 l 925 185 z "},"ï":{"ha":1017,"x_min":0,"x_max":0,"o":"m 278 1111 l 92 1111 l 92 926 l 278 926 z m 739 1111 l 739 926 l 925 926 l 925 1111 z m 601 833 l 92 833 l 92 647 l 415 647 l 415 185 l 92 185 l 92 0 l 925 0 l 925 185 l 601 185 z "},"ì":{"ha":1017,"x_min":0,"x_max":0,"o":"m 671 926 l 485 1111 l 207 1111 l 393 926 z m 601 185 l 601 833 l 92 833 l 92 647 l 415 647 l 415 185 l 92 185 l 92 0 l 925 0 l 925 185 z "},"ī":{"ha":1017,"x_min":0,"x_max":0,"o":"m 92 1111 l 92 926 l 925 926 l 925 1111 z m 601 833 l 92 833 l 92 647 l 415 647 l 415 185 l 92 185 l 92 0 l 925 0 l 925 185 l 601 185 z "},"į":{"ha":1017,"x_min":0,"x_max":0,"o":"m 601 1111 l 415 1111 l 415 924 l 601 924 z m 925 0 l 925 185 l 601 185 l 601 833 l 92 833 l 92 647 l 415 647 l 415 185 l 92 185 l 92 0 l 647 0 l 647 -101 b 740 -194 647 -149 693 -194 l 925 -194 l 925 -101 l 833 -101 l 833 0 z "},"j":{"ha":1017,"x_min":0,"x_max":0,"o":"m 739 1114 l 739 926 l 925 926 l 925 1114 z m 415 647 l 739 647 l 739 0 l 647 -93 l 278 -93 l 278 0 l 92 0 l 92 -278 l 693 -278 b 789 -228 744 -278 769 -247 l 875 -143 b 925 -47 894 -125 925 -97 l 925 833 l 415 833 z "},"k":{"ha":1017,"x_min":0,"x_max":0,"o":"m 925 554 l 925 833 l 739 833 l 739 601 l 649 510 l 278 510 l 278 1069 l 92 1069 l 92 0 l 278 0 l 278 324 l 649 324 l 739 232 l 739 0 l 925 0 l 925 279 b 875 375 925 329 894 357 l 833 417 l 875 458 b 925 554 894 476 925 504 z "},"ķ":{"ha":1017,"x_min":0,"x_max":0,"o":"m 925 554 l 925 833 l 739 833 l 739 601 l 649 510 l 278 510 l 278 1069 l 92 1069 l 92 0 l 278 0 l 278 324 l 649 324 l 739 232 l 739 0 l 925 0 l 925 279 b 875 375 925 329 894 357 l 833 417 l 875 458 b 925 554 894 476 925 504 z m 290 -278 l 475 -278 l 615 -69 l 388 -69 z "},"l":{"ha":1017,"x_min":0,"x_max":0,"o":"m 739 278 l 739 185 l 369 185 l 278 278 l 278 1069 l 92 1069 l 92 232 b 142 135 92 181 122 153 l 228 50 b 324 0 247 31 272 0 l 925 0 l 925 278 z "},"ĺ":{"ha":1017,"x_min":0,"x_max":0,"o":"m 532 1306 l 254 1306 l 138 1121 l 346 1121 z m 693 278 l 693 185 l 415 185 l 324 278 l 324 1069 l 138 1069 b 138 390 138 718 138 704 l 138 333 l 138 232 b 188 135 138 181 168 153 l 274 50 b 369 0 293 31 318 0 l 879 0 l 879 278 z "},"ľ":{"ha":1017,"x_min":0,"x_max":0,"o":"m 601 1306 l 403 1306 l 322 1158 l 336 1306 l 139 1306 l 138 1121 l 507 1121 z m 693 278 l 693 185 l 415 185 l 324 278 l 324 1069 l 138 1069 b 138 390 138 718 138 704 l 138 333 l 138 232 b 188 135 138 181 168 153 l 274 50 b 369 0 293 31 318 0 l 879 0 l 879 278 z "},"ļ":{"ha":1017,"x_min":0,"x_max":0,"o":"m 739 278 l 739 185 l 369 185 l 278 278 l 278 1069 l 92 1069 l 92 232 b 142 135 92 181 122 153 l 228 50 b 324 0 247 31 272 0 l 925 0 l 925 278 z m 290 -278 l 475 -278 l 615 -69 l 388 -69 z "},"ł":{"ha":1017,"x_min":0,"x_max":0,"o":"m 739 278 l 739 185 l 461 185 l 369 278 l 369 532 l 647 636 l 647 836 l 369 732 l 369 1069 l 183 1069 l 183 663 l 92 628 l 92 428 l 183 463 l 183 232 b 233 135 183 181 214 153 l 319 50 b 415 0 339 31 364 0 l 925 0 l 925 278 z "},"m":{"ha":1017,"x_min":0,"x_max":0,"o":"m 875 699 l 789 783 b 693 833 769 803 744 833 l 92 833 l 92 0 l 278 0 l 278 649 l 415 649 l 415 0 l 601 0 l 601 649 l 647 649 l 739 556 l 739 0 l 925 0 l 925 603 b 875 699 925 653 894 681 z "},"n":{"ha":1017,"x_min":0,"x_max":0,"o":"m 875 699 l 789 783 b 693 833 769 803 744 833 l 92 833 l 92 0 l 278 0 l 278 649 l 647 649 l 739 556 l 739 0 l 925 0 l 925 603 b 875 699 925 653 894 681 z "},"ń":{"ha":1017,"x_min":0,"x_max":0,"o":"m 810 1111 l 532 1111 l 346 926 l 624 926 z m 875 699 l 789 783 b 693 833 769 803 744 833 l 92 833 l 92 0 l 278 0 l 278 649 l 647 649 l 739 556 l 739 0 l 925 0 l 925 603 b 875 699 925 653 894 681 z "},"ň":{"ha":1017,"x_min":0,"x_max":0,"o":"m 693 926 l 879 1111 l 601 1111 l 508 1019 l 415 1111 l 138 1111 l 324 926 z m 875 699 l 789 783 b 693 833 769 803 744 833 l 92 833 l 92 0 l 278 0 l 278 649 l 647 649 l 739 556 l 739 0 l 925 0 l 925 603 b 875 699 925 653 894 681 z "},"ņ":{"ha":1017,"x_min":0,"x_max":0,"o":"m 875 699 l 789 783 b 693 833 769 803 744 833 l 92 833 l 92 0 l 278 0 l 278 649 l 647 649 l 739 556 l 739 0 l 925 0 l 925 603 b 875 699 925 653 894 681 z m 290 -278 l 475 -278 l 615 -69 l 388 -69 z "},"ŋ":{"ha":1017,"x_min":0,"x_max":0,"o":"m 829 699 l 743 783 b 647 833 724 803 699 833 l 138 833 l 138 0 l 324 0 l 324 649 l 601 649 l 693 556 l 693 0 l 508 0 l 508 -186 l 788 -186 l 879 -94 l 879 603 b 829 699 879 653 849 681 z "},"ñ":{"ha":1017,"x_min":0,"x_max":0,"o":"m 92 1111 l 92 926 l 925 926 l 925 1111 z m 875 699 l 789 783 b 693 833 769 803 744 833 l 92 833 l 92 0 l 278 0 l 278 649 l 647 649 l 739 556 l 739 0 l 925 0 l 925 603 b 875 699 925 653 894 681 z "},"o":{"ha":1017,"x_min":0,"x_max":0,"o":"m 875 699 l 789 783 b 693 833 769 803 744 833 l 324 833 b 228 783 272 833 247 803 l 142 699 b 92 603 122 681 92 653 l 92 232 b 142 135 92 181 122 153 l 228 50 b 324 0 247 31 272 0 l 693 0 b 789 50 744 0 769 31 l 875 135 b 925 232 894 153 925 181 l 925 603 b 875 699 925 653 894 681 z m 739 278 l 647 185 l 369 185 l 278 278 l 278 556 l 369 649 l 647 649 l 739 556 z "},"ó":{"ha":1017,"x_min":0,"x_max":0,"o":"m 810 1111 l 532 1111 l 346 926 l 624 926 z m 875 699 l 789 783 b 693 833 769 803 744 833 l 324 833 b 228 783 272 833 247 803 l 142 699 b 92 603 122 681 92 653 l 92 232 b 142 135 92 181 122 153 l 228 50 b 324 0 247 31 272 0 l 693 0 b 789 50 744 0 769 31 l 875 135 b 925 232 894 153 925 181 l 925 603 b 875 699 925 653 894 681 z m 739 278 l 647 185 l 369 185 l 278 278 l 278 556 l 369 649 l 647 649 l 739 556 z "},"ô":{"ha":1017,"x_min":0,"x_max":0,"o":"m 508 1018 l 601 926 l 879 926 l 693 1111 l 324 1111 l 138 926 l 415 926 z m 875 699 l 789 783 b 693 833 769 803 744 833 l 324 833 b 228 783 272 833 247 803 l 142 699 b 92 603 122 681 92 653 l 92 232 b 142 135 92 181 122 153 l 228 50 b 324 0 247 31 272 0 l 693 0 b 789 50 744 0 769 31 l 875 135 b 925 232 894 153 925 181 l 925 603 b 875 699 925 653 894 681 z m 739 278 l 647 185 l 369 185 l 278 278 l 278 556 l 369 649 l 647 649 l 739 556 z "},"ö":{"ha":1017,"x_min":0,"x_max":0,"o":"m 278 1111 l 92 1111 l 92 926 l 278 926 z m 739 1111 l 739 926 l 925 926 l 925 1111 z m 875 699 l 789 783 b 693 833 769 803 744 833 l 324 833 b 228 783 272 833 247 803 l 142 699 b 92 603 122 681 92 653 l 92 232 b 142 135 92 181 122 153 l 228 50 b 324 0 247 31 272 0 l 693 0 b 789 50 744 0 769 31 l 875 135 b 925 232 894 153 925 181 l 925 603 b 875 699 925 653 894 681 z m 739 278 l 647 185 l 369 185 l 278 278 l 278 556 l 369 649 l 647 649 l 739 556 z "},"ò":{"ha":1017,"x_min":0,"x_max":0,"o":"m 671 926 l 485 1111 l 207 1111 l 393 926 z m 875 699 l 789 783 b 693 833 769 803 744 833 l 324 833 b 228 783 272 833 247 803 l 142 699 b 92 603 122 681 92 653 l 92 232 b 142 135 92 181 122 153 l 228 50 b 324 0 247 31 272 0 l 693 0 b 789 50 744 0 769 31 l 875 135 b 925 232 894 153 925 181 l 925 603 b 875 699 925 653 894 681 z m 739 278 l 647 185 l 369 185 l 278 278 l 278 556 l 369 649 l 647 649 l 739 556 z "},"ő":{"ha":1017,"x_min":0,"x_max":0,"o":"m 581 1111 l 303 1111 l 256 926 l 394 926 z m 714 926 l 900 1111 l 622 1111 l 575 926 z m 875 699 l 789 783 b 693 833 769 803 744 833 l 324 833 b 228 783 272 833 247 803 l 142 699 b 92 603 122 681 92 653 l 92 232 b 142 135 92 181 122 153 l 228 50 b 324 0 247 31 272 0 l 693 0 b 789 50 744 0 769 31 l 875 135 b 925 232 894 153 925 181 l 925 603 b 875 699 925 653 894 681 z m 739 278 l 647 185 l 369 185 l 278 278 l 278 556 l 369 649 l 647 649 l 739 556 z "},"ō":{"ha":1017,"x_min":0,"x_max":0,"o":"m 92 1111 l 92 926 l 925 926 l 925 1111 z m 875 699 l 789 783 b 693 833 769 803 744 833 l 324 833 b 228 783 272 833 247 803 l 142 699 b 92 603 122 681 92 653 l 92 232 b 142 135 92 181 122 153 l 228 50 b 324 0 247 31 272 0 l 693 0 b 789 50 744 0 769 31 l 875 135 b 925 232 894 153 925 181 l 925 603 b 875 699 925 653 894 681 z m 739 278 l 647 185 l 369 185 l 278 278 l 278 556 l 369 649 l 647 649 l 739 556 z "},"ø":{"ha":1017,"x_min":0,"x_max":0,"o":"m 875 699 l 789 783 b 693 833 769 803 744 833 l 324 833 b 228 783 272 833 247 803 l 142 699 b 92 603 122 681 92 653 l 92 232 b 142 135 92 181 122 153 l 228 50 b 324 0 247 31 272 0 l 693 0 b 789 50 744 0 769 31 l 875 135 b 925 232 894 153 925 181 l 925 603 b 875 699 925 653 894 681 z m 278 556 l 369 649 l 551 649 l 301 254 l 278 278 z m 739 278 l 647 185 l 453 185 l 714 581 l 739 556 z "},"õ":{"ha":1017,"x_min":0,"x_max":0,"o":"m 92 1111 l 92 926 l 925 926 l 925 1111 z m 875 699 l 789 783 b 693 833 769 803 744 833 l 324 833 b 228 783 272 833 247 803 l 142 699 b 92 603 122 681 92 653 l 92 232 b 142 135 92 181 122 153 l 228 50 b 324 0 247 31 272 0 l 693 0 b 789 50 744 0 769 31 l 875 135 b 925 232 894 153 925 181 l 925 603 b 875 699 925 653 894 681 z m 739 278 l 647 185 l 369 185 l 278 278 l 278 556 l 369 649 l 647 649 l 739 556 z "},"œ":{"ha":1017,"x_min":0,"x_max":0,"o":"m 833 833 l 324 833 b 228 783 272 833 247 803 l 142 699 b 92 603 122 681 92 653 l 92 232 b 142 135 92 181 122 153 l 228 50 b 324 0 247 31 272 0 l 925 0 l 925 185 l 601 185 l 601 325 l 833 325 l 925 417 l 925 742 z m 369 185 l 278 278 l 278 556 l 369 649 l 415 649 l 415 185 z m 739 649 l 739 511 l 601 511 l 601 649 z "},"p":{"ha":1017,"x_min":0,"x_max":0,"o":"m 829 699 l 743 783 b 647 833 724 803 699 833 l 138 833 l 138 649 l 138 185 l 138 0 l 138 -278 l 324 -278 l 324 0 l 647 0 b 743 50 699 0 724 31 l 829 135 b 879 231 849 153 879 181 l 879 601 b 829 699 879 653 849 681 z m 693 278 l 601 185 l 324 185 l 324 649 l 601 649 l 693 556 z "},"þ":{"ha":1017,"x_min":0,"x_max":0,"o":"m 829 699 l 743 783 b 647 833 724 803 699 833 l 324 833 l 324 1069 l 138 1069 l 138 833 b 138 649 138 776 138 714 l 138 185 b 138 0 138 121 138 60 l 138 -278 l 324 -278 l 324 0 l 647 0 b 743 50 699 0 724 31 l 829 135 b 879 231 849 153 879 181 l 879 601 b 829 699 879 653 849 681 z m 693 278 l 601 185 l 324 185 l 324 649 l 601 649 l 693 556 z "},"q":{"ha":1017,"x_min":0,"x_max":0,"o":"m 879 833 l 369 833 b 274 783 318 833 293 803 l 188 699 b 138 601 168 681 138 653 l 138 231 b 188 135 138 181 168 153 l 274 50 b 369 0 293 31 318 0 l 693 0 l 693 -278 l 879 -278 z m 693 185 l 415 185 l 324 278 l 324 556 l 415 649 l 693 649 z "},"r":{"ha":1017,"x_min":0,"x_max":0,"o":"m 278 0 l 278 556 l 369 649 l 925 649 l 925 833 l 324 833 b 228 783 272 833 247 803 l 142 699 b 92 603 122 681 92 653 l 92 0 z "},"ŕ":{"ha":1017,"x_min":0,"x_max":0,"o":"m 624 926 l 810 1111 l 532 1111 l 346 926 z m 278 0 l 278 556 l 369 649 l 925 649 l 925 833 l 324 833 b 228 783 272 833 247 803 l 142 699 b 92 603 122 681 92 653 l 92 0 z "},"ř":{"ha":1017,"x_min":0,"x_max":0,"o":"m 415 1111 l 138 1111 l 324 926 l 693 926 l 879 1111 l 601 1111 l 508 1019 z m 278 0 l 278 556 l 369 649 l 925 649 l 925 833 l 324 833 b 228 783 272 833 247 803 l 142 699 b 92 603 122 681 92 653 l 92 0 z "},"ŗ":{"ha":1017,"x_min":0,"x_max":0,"o":"m 278 0 l 278 556 l 369 649 l 925 649 l 925 833 l 324 833 b 228 783 272 833 247 803 l 142 699 b 92 603 122 681 92 653 l 92 0 z m 92 -69 l 92 -278 l 235 -278 l 278 -69 z "},"s":{"ha":1017,"x_min":0,"x_max":0,"o":"m 369 649 l 925 649 l 925 833 l 324 833 b 228 783 272 833 247 803 l 142 699 b 92 603 122 681 92 653 l 92 324 l 739 324 l 739 278 l 647 185 l 92 185 l 92 0 l 693 0 b 789 50 744 0 769 31 l 875 135 b 925 231 894 153 925 181 l 925 510 l 278 510 l 278 556 z "},"ś":{"ha":1017,"x_min":0,"x_max":0,"o":"m 810 1111 l 532 1111 l 346 926 l 624 926 z m 369 649 l 925 649 l 925 833 l 324 833 b 228 783 272 833 247 803 l 142 699 b 92 603 122 681 92 653 l 92 324 l 739 324 l 739 278 l 647 185 l 92 185 l 92 0 l 693 0 b 789 50 744 0 769 31 l 875 135 b 925 231 894 153 925 181 l 925 510 l 278 510 l 278 556 z "},"š":{"ha":1017,"x_min":0,"x_max":0,"o":"m 693 926 l 879 1111 l 601 1111 l 508 1019 l 415 1111 l 138 1111 l 324 926 z m 369 649 l 925 649 l 925 833 l 324 833 b 228 783 272 833 247 803 l 142 699 b 92 603 122 681 92 653 l 92 324 l 739 324 l 739 278 l 647 185 l 92 185 l 92 0 l 693 0 b 789 50 744 0 769 31 l 875 135 b 925 231 894 153 925 181 l 925 510 l 278 510 l 278 556 z "},"ş":{"ha":1017,"x_min":0,"x_max":0,"o":"m 369 649 l 925 649 l 925 833 l 324 833 b 228 783 272 833 247 803 l 142 699 b 92 603 122 681 92 653 l 92 324 l 739 324 l 739 278 l 647 185 l 92 185 l 92 0 l 347 0 l 347 -172 l 533 -172 l 533 -264 l 347 -264 l 347 -357 l 624 -357 b 717 -264 671 -357 717 -311 l 717 -172 b 624 -79 717 -125 671 -79 l 533 -79 l 533 0 l 693 0 b 789 50 744 0 769 31 l 875 135 b 925 231 894 153 925 181 l 925 510 l 278 510 l 278 556 z "},"ș":{"ha":1017,"x_min":0,"x_max":0,"o":"m 369 649 l 925 649 l 925 833 l 324 833 b 228 783 272 833 247 803 l 142 699 b 92 603 122 681 92 653 l 92 324 l 739 324 l 739 278 l 647 185 l 92 185 l 92 0 l 693 0 b 789 50 744 0 769 31 l 875 135 b 925 231 894 153 925 181 l 925 510 l 278 510 l 278 556 z m 221 -278 l 406 -278 l 546 -69 l 318 -69 z "},"ß":{"ha":1017,"x_min":0,"x_max":0,"o":"m 879 885 l 879 1069 l 369 1069 b 274 1019 318 1069 293 1039 l 189 935 b 138 838 169 915 138 889 l 138 0 l 324 0 l 324 793 l 415 883 l 647 885 l 415 607 l 415 421 l 693 421 l 693 185 l 415 185 l 415 0 l 740 0 b 879 139 810 0 879 69 l 879 468 b 740 607 879 538 810 607 l 647 607 z "},"t":{"ha":1017,"x_min":0,"x_max":0,"o":"m 925 647 l 925 833 l 510 833 l 510 1019 l 324 1019 l 324 833 l 92 833 l 92 647 l 324 647 l 324 231 b 374 135 324 181 354 153 l 460 50 b 556 0 479 31 504 0 l 925 0 l 925 186 l 600 186 l 510 278 l 510 647 z "},"ŧ":{"ha":1017,"x_min":0,"x_max":0,"o":"m 879 647 l 879 833 l 510 833 l 510 1019 l 324 1019 l 324 833 l 138 833 l 138 647 l 324 647 l 324 510 l 193 510 l 193 324 l 324 324 l 324 231 b 374 135 324 181 354 153 l 460 50 b 556 0 479 31 504 0 l 879 0 l 879 186 l 600 186 l 510 278 l 510 324 l 824 324 l 824 510 l 510 510 l 510 647 z "},"ť":{"ha":1063,"x_min":0,"x_max":0,"o":"m 647 1111 l 743 1296 l 507 1296 l 463 1204 l 419 1296 l 183 1296 l 278 1111 z m 971 647 l 971 833 l 556 833 l 556 1019 l 369 1019 l 369 833 l 138 833 l 138 647 l 369 647 l 369 231 b 419 135 369 181 400 153 l 506 50 b 601 0 525 31 550 0 l 971 0 l 971 186 l 646 186 l 556 278 l 556 647 z "},"ţ":{"ha":1017,"x_min":0,"x_max":0,"o":"m 925 647 l 925 833 l 510 833 l 510 1019 l 324 1019 l 324 833 l 92 833 l 92 647 l 324 647 l 324 231 b 374 135 324 181 354 153 l 460 50 b 524 4 475 35 493 14 l 524 -172 l 710 -172 l 710 -264 l 524 -264 l 524 -357 l 800 -357 b 893 -264 847 -357 893 -311 l 893 -172 b 800 -79 893 -125 847 -79 l 710 -79 l 710 0 l 925 0 l 925 186 l 600 186 l 510 278 l 510 647 z "},"ț":{"ha":1017,"x_min":0,"x_max":0,"o":"m 925 647 l 925 833 l 510 833 l 510 1019 l 324 1019 l 324 833 l 92 833 l 92 647 l 324 647 l 324 231 b 374 135 324 181 354 153 l 460 50 b 556 0 479 31 504 0 l 925 0 l 925 186 l 600 186 l 510 278 l 510 647 z m 397 -278 l 582 -278 l 722 -69 l 494 -69 z "},"u":{"ha":1017,"x_min":0,"x_max":0,"o":"m 739 833 l 739 185 l 369 185 l 278 278 l 278 833 l 92 833 l 92 231 b 142 135 92 181 122 153 l 228 50 b 324 0 247 31 272 0 l 925 0 l 925 833 z "},"ú":{"ha":1017,"x_min":0,"x_max":0,"o":"m 810 1111 l 532 1111 l 346 926 l 624 926 z m 739 833 l 739 185 l 369 185 l 278 278 l 278 833 l 92 833 l 92 231 b 142 135 92 181 122 153 l 228 50 b 324 0 247 31 272 0 l 925 0 l 925 833 z "},"û":{"ha":1017,"x_min":0,"x_max":0,"o":"m 508 1018 l 601 926 l 879 926 l 693 1111 l 324 1111 l 138 926 l 415 926 z m 739 833 l 739 185 l 369 185 l 278 278 l 278 833 l 92 833 l 92 231 b 142 135 92 181 122 153 l 228 50 b 324 0 247 31 272 0 l 925 0 l 925 833 z "},"ü":{"ha":1017,"x_min":0,"x_max":0,"o":"m 278 1111 l 92 1111 l 92 926 l 278 926 z m 739 1111 l 739 926 l 925 926 l 925 1111 z m 739 185 l 369 185 l 278 278 l 278 833 l 92 833 l 92 231 b 142 135 92 181 122 153 l 228 50 b 324 0 247 31 272 0 l 925 0 l 925 833 l 739 833 z "},"ù":{"ha":1017,"x_min":0,"x_max":0,"o":"m 671 926 l 485 1111 l 207 1111 l 393 926 z m 739 833 l 739 185 l 369 185 l 278 278 l 278 833 l 92 833 l 92 231 b 142 135 92 181 122 153 l 228 50 b 324 0 247 31 272 0 l 925 0 l 925 833 z "},"ű":{"ha":1017,"x_min":0,"x_max":0,"o":"m 581 1111 l 303 1111 l 256 926 l 394 926 z m 714 926 l 900 1111 l 622 1111 l 575 926 z m 739 833 l 739 185 l 369 185 l 278 278 l 278 833 l 92 833 l 92 231 b 142 135 92 181 122 153 l 228 50 b 324 0 247 31 272 0 l 925 0 l 925 833 z "},"ū":{"ha":1017,"x_min":0,"x_max":0,"o":"m 92 1111 l 92 926 l 925 926 l 925 1111 z m 739 185 l 369 185 l 278 278 l 278 833 l 92 833 l 92 231 b 142 135 92 181 122 153 l 228 50 b 324 0 247 31 272 0 l 925 0 l 925 833 l 739 833 z "},"ų":{"ha":1017,"x_min":0,"x_max":0,"o":"m 925 0 l 925 833 l 739 833 l 739 185 l 369 185 l 278 278 l 278 833 l 92 833 l 92 231 b 142 135 92 181 122 153 l 228 50 b 324 0 247 31 272 0 l 647 0 l 647 -101 b 740 -194 647 -149 693 -194 l 925 -194 l 925 -101 l 833 -101 l 833 0 z "},"ů":{"ha":1017,"x_min":0,"x_max":0,"o":"m 435 926 l 582 926 b 675 1019 629 926 675 972 l 675 1167 b 582 1260 675 1214 629 1260 l 435 1260 b 342 1167 388 1260 342 1214 l 342 1019 b 435 926 342 972 388 926 z m 463 1139 l 554 1139 l 554 1047 l 463 1047 z m 739 833 l 739 185 l 369 185 l 278 278 l 278 833 l 92 833 l 92 231 b 142 135 92 181 122 153 l 228 50 b 324 0 247 31 272 0 l 925 0 l 925 833 z "},"v":{"ha":1017,"x_min":0,"x_max":0,"o":"m 739 833 l 739 371 l 554 185 l 278 185 l 278 833 l 92 833 l 92 0 l 600 0 b 697 50 651 0 678 31 l 875 228 b 925 324 894 247 925 274 l 925 833 z "},"w":{"ha":1017,"x_min":0,"x_max":0,"o":"m 739 833 l 739 186 l 693 186 l 601 278 l 601 833 l 415 833 l 415 278 l 324 186 l 278 186 l 278 833 l 92 833 l 92 0 l 369 0 b 465 50 421 0 446 31 l 508 93 l 551 50 b 647 0 571 31 596 0 l 925 0 l 925 833 z "},"ẃ":{"ha":1017,"x_min":0,"x_max":0,"o":"m 810 1111 l 532 1111 l 346 926 l 624 926 z m 739 833 l 739 186 l 693 186 l 601 278 l 601 833 l 415 833 l 415 278 l 324 186 l 278 186 l 278 833 l 92 833 l 92 0 l 369 0 b 465 50 421 0 446 31 l 508 93 l 551 50 b 647 0 571 31 596 0 l 925 0 l 925 833 z "},"ŵ":{"ha":1017,"x_min":0,"x_max":0,"o":"m 508 1018 l 601 926 l 879 926 l 693 1111 l 324 1111 l 138 926 l 415 926 z m 739 833 l 739 186 l 693 186 l 601 278 l 601 833 l 415 833 l 415 278 l 324 186 l 278 186 l 278 833 l 92 833 l 92 0 l 369 0 b 465 50 421 0 446 31 l 508 93 l 551 50 b 647 0 571 31 596 0 l 925 0 l 925 833 z "},"ẅ":{"ha":1017,"x_min":0,"x_max":0,"o":"m 278 1111 l 92 1111 l 92 926 l 278 926 z m 739 1111 l 739 926 l 925 926 l 925 1111 z m 739 186 l 693 186 l 601 278 l 601 833 l 415 833 l 415 278 l 324 186 l 278 186 l 278 833 l 92 833 l 92 0 l 369 0 b 465 50 421 0 446 31 l 508 93 l 551 50 b 647 0 571 31 596 0 l 925 0 l 925 833 l 739 833 z "},"ẁ":{"ha":1017,"x_min":0,"x_max":0,"o":"m 671 926 l 485 1111 l 207 1111 l 393 926 z m 739 833 l 739 186 l 693 186 l 601 278 l 601 833 l 415 833 l 415 278 l 324 186 l 278 186 l 278 833 l 92 833 l 92 0 l 369 0 b 465 50 421 0 446 31 l 508 93 l 551 50 b 647 0 571 31 596 0 l 925 0 l 925 833 z "},"x":{"ha":1019,"x_min":0,"x_max":0,"o":"m 928 556 l 928 833 l 742 833 l 742 601 l 628 510 l 392 510 l 278 601 l 278 833 l 92 833 l 92 556 b 142 460 92 504 122 479 l 185 417 l 142 374 b 92 278 122 354 92 329 l 92 0 l 278 0 l 278 232 l 392 324 l 628 324 l 742 232 l 742 0 l 928 0 l 928 278 b 878 374 928 329 897 354 l 835 417 l 878 460 b 928 556 897 479 928 504 z "},"y":{"ha":1017,"x_min":0,"x_max":0,"o":"m 739 833 l 739 185 l 369 185 l 278 278 l 278 833 l 92 833 l 92 232 b 142 135 92 181 122 153 l 228 50 b 324 0 247 31 272 0 l 739 0 l 739 -42 l 647 -135 l 228 -135 l 228 -319 l 693 -319 b 789 -269 744 -319 769 -289 l 875 -185 b 925 -87 894 -167 925 -139 l 925 833 z "},"ý":{"ha":1017,"x_min":0,"x_max":0,"o":"m 810 1111 l 532 1111 l 346 926 l 624 926 z m 739 833 l 739 185 l 369 185 l 278 278 l 278 833 l 92 833 l 92 232 b 142 135 92 181 122 153 l 228 50 b 324 0 247 31 272 0 l 739 0 l 739 -42 l 647 -135 l 228 -135 l 228 -319 l 693 -319 b 789 -269 744 -319 769 -289 l 875 -185 b 925 -87 894 -167 925 -139 l 925 833 z "},"ŷ":{"ha":1017,"x_min":0,"x_max":0,"o":"m 508 1018 l 601 926 l 879 926 l 693 1111 l 324 1111 l 138 926 l 415 926 z m 739 833 l 739 185 l 369 185 l 278 278 l 278 833 l 92 833 l 92 232 b 142 135 92 181 122 153 l 228 50 b 324 0 247 31 272 0 l 739 0 l 739 -42 l 647 -135 l 228 -135 l 228 -319 l 693 -319 b 789 -269 744 -319 769 -289 l 875 -185 b 925 -87 894 -167 925 -139 l 925 833 z "},"ÿ":{"ha":1017,"x_min":0,"x_max":0,"o":"m 278 1111 l 92 1111 l 92 926 l 278 926 z m 739 1111 l 739 926 l 925 926 l 925 1111 z m 739 185 l 369 185 l 278 278 l 278 833 l 92 833 l 92 232 b 142 135 92 181 122 153 l 228 50 b 324 0 247 31 272 0 l 739 0 l 739 -42 l 647 -135 l 228 -135 l 228 -319 l 693 -319 b 789 -269 744 -319 769 -289 l 875 -185 b 925 -87 894 -167 925 -139 l 925 833 l 739 833 z "},"ỳ":{"ha":1017,"x_min":0,"x_max":0,"o":"m 671 926 l 485 1111 l 207 1111 l 393 926 z m 739 833 l 739 185 l 369 185 l 278 278 l 278 833 l 92 833 l 92 232 b 142 135 92 181 122 153 l 228 50 b 324 0 247 31 272 0 l 739 0 l 739 -42 l 647 -135 l 228 -135 l 228 -319 l 693 -319 b 789 -269 744 -319 769 -289 l 875 -185 b 925 -87 894 -167 925 -139 l 925 833 z "},"z":{"ha":1017,"x_min":0,"x_max":0,"o":"m 92 833 l 92 647 l 739 647 l 739 601 l 647 508 l 647 510 l 324 510 b 228 460 272 510 247 479 l 142 375 b 92 279 122 357 92 329 l 92 0 l 925 0 l 925 186 l 278 186 l 278 232 l 369 325 l 369 324 l 693 324 b 789 374 744 324 769 354 l 875 458 b 925 554 894 476 925 504 l 925 833 z "},"ź":{"ha":1017,"x_min":0,"x_max":0,"o":"m 810 1111 l 532 1111 l 346 926 l 624 926 z m 92 833 l 92 647 l 739 647 l 739 601 l 647 508 l 647 510 l 324 510 b 228 460 272 510 247 479 l 142 375 b 92 279 122 357 92 329 l 92 0 l 925 0 l 925 186 l 278 186 l 278 232 l 369 325 l 369 324 l 693 324 b 789 374 744 324 769 354 l 875 458 b 925 554 894 476 925 504 l 925 833 z "},"ž":{"ha":1017,"x_min":0,"x_max":0,"o":"m 693 926 l 879 1111 l 601 1111 l 508 1019 l 415 1111 l 138 1111 l 324 926 z m 92 833 l 92 647 l 739 647 l 739 601 l 647 508 l 647 510 l 324 510 b 228 460 272 510 247 479 l 142 375 b 92 279 122 357 92 329 l 92 0 l 925 0 l 925 186 l 278 186 l 278 232 l 369 325 l 369 324 l 693 324 b 789 374 744 324 769 354 l 875 458 b 925 554 894 476 925 504 l 925 833 z "},"ż":{"ha":1017,"x_min":0,"x_max":0,"o":"m 601 1111 l 415 1111 l 415 924 l 601 924 z m 92 833 l 92 647 l 739 647 l 739 601 l 647 508 l 647 510 l 324 510 b 228 460 272 510 247 479 l 142 375 b 92 279 122 357 92 329 l 92 0 l 925 0 l 925 186 l 278 186 l 278 232 l 369 325 l 369 324 l 693 324 b 789 374 744 324 769 354 l 875 458 b 925 554 894 476 925 504 l 925 833 z "},".":{"ha":1017,"x_min":0,"x_max":0,"o":"m 369 135 b 406 51 369 86 383 74 l 421 36 b 504 0 440 17 453 0 l 513 0 b 596 36 564 0 576 17 l 611 51 b 647 135 633 74 647 86 l 647 143 b 611 226 647 192 633 204 l 596 242 b 513 278 576 261 564 278 l 504 278 b 421 242 453 278 440 261 l 406 226 b 369 143 383 204 369 192 z "},",":{"ha":1017,"x_min":0,"x_max":0,"o":"m 421 139 l 324 -139 l 508 -139 l 649 139 z "},":":{"ha":1017,"x_min":0,"x_max":0,"o":"m 369 690 b 406 607 369 642 383 629 l 421 592 b 504 556 440 572 453 556 l 513 556 b 596 592 564 556 576 572 l 611 607 b 647 690 633 629 647 642 l 647 699 b 611 782 647 747 633 760 l 596 797 b 513 833 576 817 564 833 l 504 833 b 421 797 453 833 440 817 l 406 782 b 369 699 383 760 369 747 z m 369 135 b 406 51 369 86 383 74 l 421 36 b 504 0 440 17 453 0 l 513 0 b 596 36 564 0 576 17 l 611 51 b 647 135 633 74 647 86 l 647 143 b 611 226 647 192 633 204 l 596 242 b 513 278 576 261 564 278 l 504 278 b 421 242 453 278 440 261 l 406 226 b 369 143 383 204 369 192 z "},";":{"ha":1017,"x_min":0,"x_max":0,"o":"m 369 690 b 406 607 369 642 383 629 l 421 592 b 504 556 440 572 453 556 l 513 556 b 596 592 564 556 576 572 l 611 607 b 647 690 633 629 647 642 l 647 699 b 611 782 647 747 633 760 l 596 797 b 513 833 576 817 564 833 l 504 833 b 421 797 453 833 440 817 l 406 782 b 369 699 383 760 369 747 z m 421 139 l 324 -139 l 508 -139 l 649 139 z "},"!":{"ha":1017,"x_min":0,"x_max":0,"o":"m 554 371 l 601 601 l 601 1111 l 415 1111 l 415 601 l 463 371 z m 647 143 b 611 226 647 192 633 204 l 596 242 b 513 278 576 261 564 278 l 504 278 b 421 242 453 278 440 261 l 406 226 b 369 143 383 204 369 192 l 369 135 b 406 51 369 86 383 74 l 421 36 b 504 0 440 17 453 0 l 513 0 b 596 36 564 0 576 17 l 611 51 b 647 135 633 74 647 86 z "},"¡":{"ha":1017,"x_min":0,"x_max":0,"o":"m 647 968 l 647 976 b 611 1060 647 1025 633 1038 l 596 1075 b 513 1111 576 1094 564 1111 l 504 1111 b 421 1075 453 1111 440 1094 l 406 1060 b 369 976 383 1038 369 1025 l 369 968 b 406 885 369 919 383 907 l 421 869 b 504 833 440 850 453 833 l 513 833 b 596 869 564 833 576 850 l 611 885 b 647 968 633 907 647 919 z m 554 740 l 463 740 l 415 510 l 415 0 l 601 0 l 601 510 z "},"?":{"ha":1017,"x_min":0,"x_max":0,"o":"m 875 976 l 790 1061 b 694 1111 771 1081 744 1111 l 324 1111 b 226 1061 272 1111 246 1081 l 142 976 b 92 879 122 957 92 931 l 92 740 l 278 740 l 278 835 l 369 926 l 649 926 l 739 835 l 739 786 l 649 694 l 554 694 b 415 556 485 694 415 625 l 415 476 l 461 371 l 554 371 l 603 476 l 603 510 l 694 510 b 790 560 746 510 771 540 l 875 644 b 925 742 894 664 925 690 l 925 879 b 875 976 925 931 894 957 z m 647 143 b 611 226 647 192 633 204 l 596 242 b 513 278 576 261 564 278 l 504 278 b 421 242 453 278 440 261 l 406 226 b 369 143 383 204 369 192 l 369 135 b 406 51 369 86 383 74 l 421 36 b 504 0 440 17 453 0 l 513 0 b 596 36 564 0 576 17 l 611 51 b 647 135 633 74 647 86 z "},"¿":{"ha":1017,"x_min":0,"x_max":0,"o":"m 369 968 b 406 885 369 919 383 907 l 421 869 b 504 833 440 850 453 833 l 513 833 b 596 869 564 833 576 850 l 611 885 b 647 968 633 907 647 919 l 647 976 b 611 1060 647 1025 633 1038 l 596 1075 b 513 1111 576 1094 564 1111 l 504 1111 b 421 1075 453 1111 440 1094 l 406 1060 b 369 976 383 1038 369 1025 z m 142 135 l 226 50 b 322 0 246 31 272 0 l 693 0 b 790 50 744 0 771 31 l 875 135 b 925 232 894 154 925 181 l 925 371 l 739 371 l 739 276 l 647 185 l 368 185 l 278 276 l 278 325 l 368 417 l 463 417 b 601 556 532 417 601 486 l 601 635 l 556 740 l 463 740 l 414 635 l 414 601 l 322 601 b 226 551 271 601 246 571 l 142 467 b 92 369 122 447 92 421 l 92 232 b 142 135 92 181 122 154 z "},"·":{"ha":1017,"x_min":0,"x_max":0,"o":"m 369 413 b 406 329 369 364 383 351 l 421 314 b 504 278 440 294 453 278 l 513 278 b 596 314 564 278 576 294 l 611 329 b 647 413 633 351 647 364 l 647 421 b 611 504 647 469 633 482 l 596 519 b 513 556 576 539 564 556 l 504 556 b 421 519 453 556 440 539 l 406 504 b 369 421 383 482 369 469 z "},"•":{"ha":1017,"x_min":0,"x_max":0,"o":"m 314 357 b 350 274 314 308 328 296 l 365 258 b 449 222 385 239 397 222 l 568 222 b 651 258 619 222 632 239 l 667 274 b 703 357 689 296 703 308 l 703 476 b 667 560 703 525 689 538 l 651 575 b 568 611 632 594 619 611 l 449 611 b 365 575 397 611 385 594 l 350 560 b 314 476 328 538 314 525 z "},"*":{"ha":1017,"x_min":0,"x_max":0,"o":"m 151 647 l 299 500 l 378 579 b 415 622 389 590 404 603 l 415 444 l 601 444 l 601 622 b 639 579 613 603 628 590 l 718 500 l 865 647 l 786 726 b 690 778 767 746 742 778 b 786 829 742 778 767 810 l 865 908 l 718 1056 l 639 976 b 601 933 628 965 613 953 l 601 1111 l 415 1111 l 415 933 b 378 976 404 953 389 965 l 299 1056 l 151 908 l 231 829 b 326 778 250 810 275 778 b 231 726 275 778 250 746 z "},"#":{"ha":1017,"x_min":0,"x_max":0,"o":"m 925 649 l 925 833 l 822 833 l 851 1111 l 657 1111 l 628 833 l 447 833 l 476 1111 l 282 1111 l 253 833 l 92 833 l 92 649 l 233 649 l 214 463 l 92 463 l 92 278 l 194 278 l 165 0 l 360 0 l 389 278 l 569 278 l 540 0 l 735 0 l 764 278 l 925 278 l 925 463 l 783 463 l 803 649 z m 589 463 l 408 463 l 428 649 l 608 649 z "},"/":{"ha":1017,"x_min":0,"x_max":0,"o":"m 667 1111 l 133 0 l 350 0 l 883 1111 z "},"\\":{"ha":1017,"x_min":0,"x_max":0,"o":"m 350 1111 l 133 1111 l 667 0 l 883 0 z "},"(":{"ha":1017,"x_min":0,"x_max":0,"o":"m 322 232 b 372 135 322 181 353 153 l 458 50 b 554 0 478 31 503 0 l 694 0 l 694 186 l 600 186 l 507 276 l 507 835 l 600 925 l 694 925 l 694 1111 l 554 1111 b 458 1061 503 1111 478 1081 l 372 976 b 322 879 353 958 322 931 z "},")":{"ha":1017,"x_min":0,"x_max":0,"o":"m 694 232 l 694 879 b 644 976 694 931 664 958 l 558 1061 b 463 1111 539 1081 514 1111 l 322 1111 l 322 925 l 417 925 l 510 835 l 510 276 l 417 186 l 322 186 l 322 0 l 463 0 b 558 50 514 0 539 31 l 644 135 b 694 232 664 153 694 181 z "},"{":{"ha":1017,"x_min":0,"x_max":0,"o":"m 600 835 l 693 925 l 786 925 l 786 1111 l 647 1111 b 551 1061 596 1111 571 1081 l 465 976 b 415 879 446 958 415 931 l 415 649 l 231 649 l 231 463 l 415 463 l 415 232 b 465 135 415 181 446 153 l 551 50 b 647 0 571 31 596 0 l 786 0 l 786 186 l 693 186 l 600 276 l 600 463 l 504 556 l 600 649 z "},"}":{"ha":1017,"x_min":0,"x_max":0,"o":"m 786 649 l 601 649 l 601 879 b 551 976 601 931 571 958 l 465 1061 b 369 1111 446 1081 421 1111 l 231 1111 l 231 925 l 324 925 l 417 835 l 417 649 l 513 556 l 417 463 l 417 276 l 324 186 l 231 186 l 231 0 l 369 0 b 465 50 421 0 446 31 l 551 135 b 601 232 571 153 601 181 l 601 463 l 786 463 z "},"[":{"ha":1017,"x_min":0,"x_max":0,"o":"m 672 0 l 672 185 l 531 185 l 531 926 l 672 926 l 672 1111 l 344 1111 l 344 0 z "},"]":{"ha":1017,"x_min":0,"x_max":0,"o":"m 344 0 l 672 0 l 672 1111 l 344 1111 l 344 926 l 486 926 l 486 185 l 344 185 z "},"-":{"ha":1017,"x_min":0,"x_max":0,"o":"m 92 324 l 925 324 l 925 510 l 92 510 z "},"_":{"ha":1017,"x_min":0,"x_max":0,"o":"m 92 -186 l 925 -186 l 925 0 l 92 0 z "},"“":{"ha":1017,"x_min":0,"x_max":0,"o":"m 324 1111 l 276 881 l 276 694 l 463 694 l 463 1111 z m 601 1111 l 554 881 l 554 694 l 740 694 l 740 1111 z "},"”":{"ha":1017,"x_min":0,"x_max":0,"o":"m 415 694 l 463 925 l 463 1111 l 276 1111 l 276 694 z m 693 694 l 740 925 l 740 1111 l 554 1111 l 554 694 z "},"‘":{"ha":1017,"x_min":0,"x_max":0,"o":"m 611 967 l 596 982 b 567 1007 586 992 579 1000 l 608 1111 l 550 1111 l 432 993 l 421 982 l 406 967 b 369 883 383 944 369 932 l 369 875 b 406 792 369 826 383 814 l 421 776 b 504 740 440 757 453 740 l 513 740 b 596 776 564 740 576 757 l 611 792 b 647 875 633 814 647 826 l 647 883 b 611 967 647 932 633 944 z "},"’":{"ha":1017,"x_min":0,"x_max":0,"o":"m 611 1060 l 596 1075 b 513 1111 576 1094 564 1111 l 504 1111 b 421 1075 453 1111 440 1094 l 406 1060 b 369 976 383 1038 369 1025 l 369 968 b 406 885 369 919 383 907 l 421 869 b 450 844 431 860 438 851 l 408 740 l 467 740 l 585 858 l 596 869 l 611 885 b 647 968 633 907 647 919 l 647 976 b 611 1060 647 1025 633 1038 z "},"«":{"ha":1017,"x_min":0,"x_max":0,"o":"m 508 788 l 508 1018 l 92 671 l 92 440 l 508 93 l 508 324 l 231 556 z m 925 1018 l 508 671 l 508 440 l 925 93 l 925 324 l 647 556 l 925 788 z "},"»":{"ha":1017,"x_min":0,"x_max":0,"o":"m 508 671 l 92 1018 l 92 788 l 369 556 l 92 324 l 92 93 l 508 440 z m 508 1018 l 508 788 l 786 556 l 508 324 l 508 93 l 925 440 l 925 671 z "},"‹":{"ha":783,"x_min":0,"x_max":0,"o":"m 646 1018 l 138 671 l 138 440 l 646 93 l 646 324 l 276 556 l 646 788 z "},"›":{"ha":783,"x_min":0,"x_max":0,"o":"m 138 1018 l 138 788 l 507 556 l 138 324 l 138 93 l 646 440 l 646 671 z "},"\"":{"ha":1017,"x_min":0,"x_max":0,"o":"m 415 694 l 463 925 l 463 1111 l 276 1111 l 276 694 z m 693 694 l 740 925 l 740 1111 l 554 1111 l 554 694 z "},"'":{"ha":1017,"x_min":0,"x_max":0,"o":"m 554 694 l 601 925 l 601 1111 l 415 1111 l 415 694 z "},"¢":{"ha":1017,"x_min":0,"x_max":0,"o":"m 875 790 l 789 875 b 693 925 769 893 744 925 l 601 925 l 601 1111 l 415 1111 l 415 925 l 324 925 b 228 875 272 925 247 894 l 143 790 b 92 694 124 771 92 744 l 92 417 b 143 321 92 365 124 340 l 228 236 b 324 186 247 217 272 186 l 415 186 l 415 0 l 601 0 l 601 185 l 693 185 b 789 235 744 185 771 217 l 874 321 b 925 417 892 340 925 365 l 925 510 l 738 510 l 738 463 l 647 372 l 369 372 l 279 463 l 279 650 l 369 739 l 647 740 l 738 650 l 738 601 l 925 601 l 925 694 b 875 790 925 746 894 772 z "},"$":{"ha":1017,"x_min":0,"x_max":0,"o":"m 925 740 l 925 881 b 875 976 925 931 894 957 l 790 1061 b 693 1111 771 1081 744 1111 l 601 1111 l 601 1181 l 415 1181 l 415 1111 l 325 1111 b 228 1061 274 1111 247 1081 l 143 976 b 93 879 124 957 93 931 l 93 694 b 143 599 93 643 124 618 l 228 514 b 325 464 247 494 274 464 l 415 464 l 415 185 l 369 185 l 278 278 l 278 371 l 92 371 l 92 232 b 143 135 92 181 124 154 l 228 50 b 324 0 247 31 272 0 l 415 0 l 415 -69 l 601 -69 l 601 0 l 693 0 b 789 50 744 0 769 32 l 875 135 b 925 232 894 153 925 181 l 925 418 b 875 515 925 469 893 496 b 789 600 860 532 806 583 b 693 650 769 619 744 650 l 601 650 l 601 926 l 647 926 l 739 833 l 739 740 z m 415 650 l 368 650 l 279 740 l 278 833 l 371 925 l 415 925 z m 647 464 l 739 372 l 739 278 l 647 185 l 601 185 l 601 464 z "},"€":{"ha":1017,"x_min":0,"x_max":0,"o":"m 875 976 l 789 1061 b 693 1111 769 1079 744 1111 l 417 1111 b 321 1061 365 1111 340 1079 l 235 976 b 185 879 215 958 185 931 l 185 788 l 92 788 l 92 601 l 185 601 l 185 510 l 92 510 l 92 324 l 185 324 l 185 232 b 235 135 185 181 215 154 l 319 50 b 417 0 339 31 365 0 l 693 0 b 789 50 744 0 769 31 l 874 135 b 925 232 893 154 925 181 l 925 371 l 739 371 l 739 278 l 647 185 l 463 185 l 371 278 l 371 324 l 647 324 l 647 510 l 371 510 l 371 601 l 647 601 l 647 788 l 371 788 l 371 833 l 463 926 l 647 926 l 739 833 l 739 740 l 925 740 l 925 879 b 875 976 925 931 894 958 z "},"£":{"ha":1017,"x_min":0,"x_max":0,"o":"m 739 278 l 739 185 l 368 185 l 368 463 l 646 463 l 646 649 l 368 649 l 368 833 l 458 926 l 601 926 l 692 833 l 693 742 l 878 742 l 878 879 b 828 976 878 931 847 957 l 743 1061 b 646 1111 724 1081 697 1111 l 415 1111 b 318 1061 364 1111 338 1081 l 233 976 b 183 879 214 957 183 931 l 183 649 l 92 649 l 92 463 l 183 463 l 183 185 l 92 185 l 92 0 l 786 0 b 925 139 856 0 925 69 l 925 278 z "},"¥":{"ha":1017,"x_min":0,"x_max":0,"o":"m 600 371 l 832 371 l 832 556 l 600 556 l 600 649 l 693 649 b 789 699 744 649 769 681 l 875 783 b 925 879 894 801 925 829 l 925 1111 l 739 1111 l 739 926 l 647 833 l 371 833 l 278 926 l 278 1111 l 92 1111 l 92 879 b 142 783 92 829 122 801 l 228 699 b 324 649 247 681 272 649 l 417 649 l 417 556 l 185 556 l 185 371 l 417 371 l 417 278 l 185 278 l 185 93 l 417 93 l 417 0 l 600 0 l 600 93 l 832 93 l 832 278 l 600 278 z "},"+":{"ha":1017,"x_min":0,"x_max":0,"o":"m 925 510 l 601 510 l 601 833 l 415 833 l 415 510 l 92 510 l 92 324 l 415 324 l 415 0 l 601 0 l 601 324 l 925 324 z "},"−":{"ha":1017,"x_min":0,"x_max":0,"o":"m 92 254 l 925 254 l 925 440 l 92 440 z "},"=":{"ha":1017,"x_min":0,"x_max":0,"o":"m 92 440 l 925 440 l 925 626 l 92 626 z m 92 68 l 925 68 l 925 254 l 92 254 z "},">":{"ha":1017,"x_min":0,"x_max":0,"o":"m 92 1018 l 92 788 l 649 556 l 92 324 l 92 93 l 925 440 l 925 671 z "},"<":{"ha":1017,"x_min":0,"x_max":0,"o":"m 925 1018 l 92 671 l 92 440 l 925 93 l 925 324 l 368 556 l 925 788 z "},"¬":{"ha":1017,"x_min":0,"x_max":0,"o":"m 925 371 l 925 649 l 92 649 l 92 463 l 740 463 l 740 371 z "},"^":{"ha":1017,"x_min":0,"x_max":0,"o":"m 647 649 l 925 649 l 693 972 l 324 972 l 92 649 l 369 649 l 508 879 z "},"%":{"ha":1017,"x_min":0,"x_max":0,"o":"m 92 0 l 286 0 b 383 50 338 0 368 26 l 778 649 l 925 649 l 925 833 l 732 833 b 635 783 681 833 650 807 l 240 185 l 92 185 z m 124 690 b 160 607 124 642 138 629 l 175 592 b 258 556 194 572 207 556 l 267 556 b 350 592 318 556 331 572 l 365 607 b 401 690 388 629 401 642 l 401 699 b 365 782 401 747 388 760 l 350 797 b 267 833 331 817 318 833 l 258 833 b 175 797 207 833 194 817 l 160 782 b 124 699 138 760 124 747 z m 615 135 b 651 51 615 86 629 74 l 667 36 b 750 0 686 17 699 0 l 758 0 b 842 36 810 0 822 17 l 857 51 b 893 135 879 74 893 86 l 893 143 b 857 226 893 192 879 204 l 842 242 b 758 278 822 261 810 278 l 750 278 b 667 242 699 278 686 261 l 651 226 b 615 143 629 204 615 192 z "},"→":{"ha":1017,"x_min":0,"x_max":0,"o":"m 875 676 l 524 1039 l 385 900 l 638 649 l 92 649 l 92 463 l 642 463 l 385 197 l 524 72 l 875 435 b 925 532 893 454 925 481 l 925 579 b 875 676 925 631 893 657 z "},"←":{"ha":1017,"x_min":0,"x_max":0,"o":"m 925 649 l 379 649 l 632 900 l 493 1039 l 142 676 b 92 579 124 657 92 631 l 92 532 b 142 435 92 481 124 454 l 493 72 l 632 197 l 375 463 l 925 463 z "},"█":{"ha":1017,"x_min":0,"x_max":0,"o":"m 92 0 l 925 0 l 925 1111 l 92 1111 z "},"▌":{"ha":1017,"x_min":0,"x_max":0,"o":"m 875 976 l 789 1061 b 693 1111 769 1081 744 1111 l 92 1111 l 92 0 l 693 0 b 789 50 744 0 769 31 l 875 135 b 925 232 894 153 925 181 l 925 881 b 875 976 925 931 894 958 z "},"▐":{"ha":1017,"x_min":0,"x_max":0,"o":"m 142 976 b 92 881 122 958 92 931 l 92 232 b 142 135 92 181 122 153 l 228 50 b 324 0 247 31 272 0 l 925 0 l 925 1111 l 324 1111 b 228 1061 272 1111 247 1081 z "},"●":{"ha":1017,"x_min":0,"x_max":0,"o":"m 92 232 b 142 135 92 181 122 153 l 228 50 b 324 0 247 31 272 0 l 693 0 b 789 50 744 0 769 31 l 875 135 b 925 232 894 153 925 181 l 925 881 b 875 976 925 931 894 958 l 789 1061 b 693 1111 769 1081 744 1111 l 324 1111 b 228 1061 272 1111 247 1081 l 142 976 b 92 881 122 958 92 931 z "},"@":{"ha":1017,"x_min":0,"x_max":0,"o":"m 324 1111 b 228 1061 272 1111 247 1081 l 142 976 b 92 881 122 958 92 931 l 92 232 b 142 135 92 181 122 153 l 228 50 b 324 0 247 31 272 0 l 925 0 l 925 185 l 369 185 l 278 278 l 278 833 l 369 926 l 739 926 l 739 822 l 522 819 l 475 819 l 383 728 l 383 382 l 475 290 l 522 290 l 522 289 l 739 292 l 739 290 l 833 290 l 925 382 l 925 1111 z m 569 475 l 569 633 l 739 636 l 739 478 z "},"&":{"ha":1017,"x_min":0,"x_max":0,"o":"m 740 278 l 740 463 l 925 463 l 925 649 l 369 649 l 278 740 l 278 833 l 369 925 l 463 926 l 554 833 l 554 740 l 740 740 l 740 879 b 690 976 740 931 710 958 l 604 1061 b 508 1111 585 1079 560 1111 l 324 1111 b 228 1061 272 1111 247 1081 l 143 976 b 92 879 124 957 92 931 l 92 694 b 143 599 92 643 124 618 l 185 556 l 143 514 b 92 417 124 494 92 468 l 92 232 b 142 135 92 181 122 153 l 228 50 b 324 0 247 32 272 0 l 508 0 b 604 50 560 0 585 31 l 647 93 l 690 50 b 786 0 710 31 735 0 l 925 0 l 925 186 l 831 186 z m 463 185 l 369 186 l 278 278 l 278 371 l 369 463 l 554 463 l 554 278 z "},"¶":{"ha":1017,"x_min":0,"x_max":0,"o":"m 925 1111 l 324 1111 b 228 1061 272 1111 247 1081 l 142 976 b 92 881 122 958 92 931 l 92 649 b 142 551 92 597 122 571 l 228 465 b 324 415 247 446 272 415 l 461 415 l 461 0 l 647 0 l 647 925 l 739 925 l 739 0 l 925 0 z m 369 601 l 278 694 l 278 833 l 369 925 l 461 925 l 461 601 z "},"§":{"ha":1017,"x_min":0,"x_max":0,"o":"m 925 879 b 875 976 925 931 894 957 l 790 1061 b 693 1111 771 1081 744 1111 l 324 1111 b 228 1061 272 1111 247 1081 l 143 976 b 92 879 124 957 92 931 l 92 833 b 117 764 92 803 104 781 b 92 694 104 747 92 725 l 92 556 b 143 460 92 504 124 479 l 228 375 b 324 325 247 356 272 325 l 647 325 l 717 256 l 647 186 l 369 186 l 278 278 l 278 324 l 92 324 l 92 232 b 143 135 92 181 124 154 l 228 50 b 324 0 247 31 272 0 l 693 0 b 789 50 744 0 769 32 l 875 135 b 925 232 894 153 925 181 l 925 278 b 900 347 925 308 913 331 b 925 418 913 364 925 386 l 925 556 b 875 651 925 607 893 633 l 789 736 b 693 788 769 754 744 788 l 369 788 l 300 857 l 369 926 l 647 926 l 739 833 l 739 788 l 925 788 z m 324 601 l 647 601 l 739 510 l 739 499 b 693 510 726 506 711 510 l 369 510 l 278 601 l 278 613 b 324 601 290 606 306 601 z "},"°":{"ha":1017,"x_min":0,"x_max":0,"o":"m 786 694 l 786 972 b 647 1111 786 1042 717 1111 l 369 1111 b 231 972 300 1111 231 1042 l 231 694 b 369 556 231 625 300 556 l 647 556 b 786 694 717 556 786 625 z m 415 740 l 415 926 l 601 926 l 601 740 z "},"|":{"ha":1017,"x_min":0,"x_max":0,"o":"m 601 -139 l 601 1111 l 415 1111 l 415 -139 z "},"¦":{"ha":1017,"x_min":0,"x_max":0,"o":"m 415 579 l 601 579 l 601 1111 l 415 1111 z m 601 393 l 415 393 l 415 -139 l 601 -139 z "},"†":{"ha":1017,"x_min":0,"x_max":0,"o":"m 925 833 l 601 833 l 601 1111 l 415 1111 l 415 833 l 92 833 l 92 647 l 415 647 l 415 -139 l 601 -139 l 601 647 l 925 647 z "},"‡":{"ha":1017,"x_min":0,"x_max":0,"o":"m 925 647 l 925 833 l 601 833 l 601 1111 l 415 1111 l 415 833 l 92 833 l 92 647 l 415 647 l 415 325 l 92 325 l 92 139 l 415 139 l 415 -139 l 601 -139 l 601 139 l 925 139 l 925 325 l 601 325 l 601 647 z "},"̈":{"ha":0,"x_min":0,"x_max":0,"o":"m -925 1389 l -925 1204 l -739 1204 l -739 1389 z m -278 1389 l -278 1204 l -92 1204 l -92 1389 z "},"̇":{"ha":0,"x_min":0,"x_max":0,"o":"m -601 1389 l -601 1201 l -415 1201 l -415 1389 z "},"̀":{"ha":0,"x_min":0,"x_max":0,"o":"m -554 1204 l -276 1204 l -462 1389 l -740 1389 z "},"́":{"ha":0,"x_min":0,"x_max":0,"o":"m -462 1204 l -276 1389 l -554 1389 l -740 1204 z "},"̋":{"ha":0,"x_min":0,"x_max":0,"o":"m -692 1204 l -506 1389 l -783 1389 l -831 1204 z m -372 1204 l -186 1389 l -464 1389 l -511 1204 z "},"̂":{"ha":0,"x_min":0,"x_max":0,"o":"m -415 1204 l -137 1204 l -324 1389 l -693 1389 l -879 1204 l -601 1204 l -508 1296 z "},"̌":{"ha":0,"x_min":0,"x_max":0,"o":"m -601 1389 l -879 1389 l -693 1204 l -324 1204 l -137 1389 l -415 1389 l -508 1297 z "},"̆":{"ha":0,"x_min":0,"x_max":0,"o":"m -342 1389 l -462 1389 l -462 1325 l -554 1325 l -554 1389 l -675 1389 l -675 1297 b -582 1204 -675 1250 -629 1204 l -435 1204 b -342 1297 -387 1204 -342 1250 z "},"̊":{"ha":0,"x_min":0,"x_max":0,"o":"m -675 1297 b -582 1204 -675 1250 -629 1204 l -435 1204 b -342 1297 -387 1204 -342 1250 l -342 1444 b -435 1538 -342 1492 -387 1538 l -582 1538 b -675 1444 -629 1538 -675 1492 z m -554 1325 l -554 1417 l -462 1417 l -462 1325 z "},"̃":{"ha":0,"x_min":0,"x_max":0,"o":"m -925 1389 l -925 1204 l -92 1204 l -92 1389 z "},"̄":{"ha":0,"x_min":0,"x_max":0,"o":"m -925 1389 l -925 1204 l -92 1204 l -92 1389 z "},"̒":{"ha":0,"x_min":0,"x_max":0,"o":"m -574 1181 l -346 1181 l -486 1389 l -671 1389 z "},"̦":{"ha":0,"x_min":0,"x_max":0,"o":"m -574 -69 l -671 -278 l -486 -278 l -346 -69 z "},"̧":{"ha":0,"x_min":0,"x_max":0,"o":"m -417 -79 l -507 -79 l -507 69 l -693 69 l -693 -172 l -507 -172 l -507 -264 l -693 -264 l -693 -357 l -417 -357 b -324 -264 -369 -357 -324 -311 l -324 -172 b -417 -79 -324 -125 -369 -79 z "},"̨":{"ha":0,"x_min":0,"x_max":0,"o":"m -531 69 l -717 69 l -717 -115 b -624 -208 -717 -162 -671 -208 l -439 -208 l -439 -115 l -531 -115 z "},"¨":{"ha":1017,"x_min":0,"x_max":0,"o":"m 92 1389 l 92 1204 l 278 1204 l 278 1389 z m 739 1389 l 739 1204 l 925 1204 l 925 1389 z "},"˙":{"ha":1017,"x_min":0,"x_max":0,"o":"m 415 1389 l 415 1201 l 601 1201 l 601 1389 z "},"`":{"ha":1017,"x_min":0,"x_max":0,"o":"m 463 1204 l 740 1204 l 554 1389 l 276 1389 z "},"´":{"ha":1017,"x_min":0,"x_max":0,"o":"m 554 1204 l 740 1389 l 463 1389 l 276 1204 z "},"˝":{"ha":1017,"x_min":0,"x_max":0,"o":"m 325 1204 l 511 1389 l 233 1389 l 186 1204 z m 644 1204 l 831 1389 l 553 1389 l 506 1204 z "},"ˆ":{"ha":1017,"x_min":0,"x_max":0,"o":"m 601 1204 l 879 1204 l 693 1389 l 324 1389 l 138 1204 l 415 1204 l 508 1296 z "},"ˇ":{"ha":1017,"x_min":0,"x_max":0,"o":"m 415 1389 l 138 1389 l 324 1204 l 693 1204 l 879 1389 l 601 1389 l 508 1297 z "},"˘":{"ha":1017,"x_min":0,"x_max":0,"o":"m 675 1389 l 554 1389 l 554 1325 l 463 1325 l 463 1389 l 342 1389 l 342 1297 b 435 1204 342 1250 388 1204 l 582 1204 b 675 1297 629 1204 675 1250 z "},"˚":{"ha":1017,"x_min":0,"x_max":0,"o":"m 342 1297 b 435 1204 342 1250 388 1204 l 582 1204 b 675 1297 629 1204 675 1250 l 675 1444 b 582 1538 675 1492 629 1538 l 435 1538 b 342 1444 388 1538 342 1492 z m 463 1325 l 463 1417 l 554 1417 l 554 1325 z "},"˜":{"ha":1017,"x_min":0,"x_max":0,"o":"m 92 1389 l 92 1204 l 925 1204 l 925 1389 z "},"¯":{"ha":1017,"x_min":0,"x_max":0,"o":"m 92 1389 l 92 1204 l 925 1204 l 925 1389 z "},"¸":{"ha":1017,"x_min":0,"x_max":0,"o":"m 600 -79 l 510 -79 l 510 69 l 324 69 l 324 -172 l 510 -172 l 510 -264 l 324 -264 l 324 -357 l 600 -357 b 693 -264 647 -357 693 -311 l 693 -172 b 600 -79 693 -125 647 -79 z "},"˛":{"ha":1017,"x_min":0,"x_max":0,"o":"m 486 69 l 300 69 l 300 -115 b 393 -208 300 -162 346 -208 l 578 -208 l 578 -115 l 486 -115 z "}}}
